<svg xmlns="http://www.w3.org/2000/svg" xmlns:xlink="http://www.w3.org/1999/xlink" version="1.1" viewBox="0 0 64 64"><g><g><path fill="#46443F" d="M11.2 57H7.3C5.9 57 5 56.1 5 55.1V44.9C5 43.9 5.9 43 7.3 43h3.9c1.4 0 2.8 0.9 2.8 1.9v10.1 C14 56.1 12.6 57 11.2 57z"/></g><g><path fill="#46443F" d="M56.9 57h-3.9c-1.4 0-3.1-0.9-3.1-2V44.5c0-1.1 1.7-2.5 3.1-2.5h3.9c1.4 0 2.1 1.4 2.1 2.5V55 C59 56.1 58.3 57 56.9 57z"/></g></g><path fill="#4C7ACC" d="M60.9 19c-2.1-1.1-3.6 1-4.5 2.9C54.6 17.5 52 11.1 52 11.1c-0.4-1.3-1.7-3.9-5.7-4.4C42.3 6.2 32 6 32 6 S21.7 6.2 17.7 6.7s-5.3 3-5.7 4.4c0 0-2.6 6.4-4.3 10.8C6.7 20 5.2 18 3.1 19c-1.3 0.7-3.2 3.4-2.5 4.6c1.5 2.6 3.7 2.6 5.4 2.1 C6 25.9 6 26 6 26c-0.6 1.5-2 2.8-2.6 4.3C1.8 33.6 2 46.4 3 48.9c0.3 0.8 1 2 2.1 2.1h27.5H59c1-0.1 1.8-1.3 2.1-2.1 c0.9-2.5 1.1-15.3-0.4-18.6c-0.7-1.5-2-2.8-2.6-4.3c0 0 0-0.1-0.1-0.2c1.7 0.6 3.9 0.6 5.4-2.1C64 22.5 62.2 19.7 60.9 19z"/><path opacity="0.2" fill="#46443F" d="M31.4 35.6C21.9 35.6 13 34 8 31.5v4c5 2.4 13.9 4 23.4 4c9.6 0 18.6-1.6 23.6-4.1v-4 C50 33.9 41.1 35.6 31.4 35.6z"/><g><path fill="#CDEAEA" d="M46.2 9.9c0.8 0.2 1.5 0.5 1.8 1.2l4.3 11.9c0.6 1.3-0.4 2.9-1.8 2.9h-4.1c-7.8 0-20.6 0-28.3 0h-4.8 c-1.4 0-2.4-1.6-1.8-2.9l5-11.9c0.3-0.7 0.9-1 1.8-1.2c0 0 4.6-1 14.1-1C42 9 46.2 9.9 46.2 9.9z"/></g><g><defs><path id="SVGID_3_" d="M60.9 19c-2.1-1.1-3.6 1-4.5 2.9C54.6 17.5 52 11.1 52 11.1c-0.4-1.3-1.7-3.9-5.7-4.4C42.3 6.2 32 6 32 6 S21.7 6.2 17.7 6.7s-5.3 3-5.7 4.4c0 0-2.6 6.4-4.3 10.8C6.7 20 5.2 18 3.1 19c-1.3 0.7-3.2 3.4-2.5 4.6c1.5 2.6 3.7 2.6 5.4 2.1 C6 25.9 6 26 6 26c-0.6 1.5-2 2.8-2.6 4.3C1.8 33.6 2 46.4 3 48.9c0.3 0.8 1 2 2.1 2.1h27.5H59c1-0.1 1.8-1.3 2.1-2.1 c0.9-2.5 1.1-15.3-0.4-18.6c-0.7-1.5-2-2.8-2.6-4.3c0 0 0-0.1-0.1-0.2c1.7 0.6 3.9 0.6 5.4-2.1C64 22.5 62.2 19.7 60.9 19z"/></defs><clipPath id="SVGID_1_"><use xlink:href="#SVGID_3_" overflow="visible"/></clipPath><polygon opacity="5.000000e-002" clip-path="url(#SVGID_1_)" points="41.8,6 64,6 64,53 12.3,53"/></g><g opacity="0.3"><g><path fill="#1B1A19" d="M45.8 43h-27c-0.3 0-0.5-0.2-0.5-0.5c0-0.3 0.2-0.5 0.5-0.5h27c0.3 0 0.5 0.2 0.5 0.5 C46.3 42.8 46.1 43 45.8 43z"/></g><g><path fill="#1B1A19" d="M45.8 45h-27c-0.3 0-0.5-0.2-0.5-0.5c0-0.3 0.2-0.5 0.5-0.5h27c0.3 0 0.5 0.2 0.5 0.5 C46.3 44.8 46.1 45 45.8 45z"/></g><g><path fill="#1B1A19" d="M45.8 47h-27c-0.3 0-0.5-0.2-0.5-0.5c0-0.3 0.2-0.5 0.5-0.5h27c0.3 0 0.5 0.2 0.5 0.5 C46.3 46.8 46.1 47 45.8 47z"/></g></g><g><path fill="#FFEFCC" d="M16.6 36c0 2.3-4.7 2.6-6.9 2.6s-4.1-1.9-4.1-4.1c0-2.3 1.8-4.1 4.1-4.1S16.6 33.7 16.6 36z"/><path fill="#FFEFCC" d="M47 36.3c0 2.5 5.1 2.8 7.6 2.8c2.5 0 4.4-2 4.4-4.5c0-2.5-2-4.5-4.4-4.5C52.1 30.1 47 33.8 47 36.3z"/></g></svg>