<?xml version="1.0" encoding="utf-8"?>
<!-- Generator: Adobe Illustrator 23.0.1, SVG Export Plug-In . SVG Version: 6.00 Build 0)  -->
<svg version="1.1" id="blog" xmlns="http://www.w3.org/2000/svg" xmlns:xlink="http://www.w3.org/1999/xlink" x="0px" y="0px"
	 width="64px" height="64px" viewBox="0 0 64 64" enable-background="new 0 0 64 64" xml:space="preserve">
<g id="レイヤー_1_1_">
	<g>
		<g>
			<g>
				<g>
					<g>
						<linearGradient id="SVGID_1_" gradientUnits="userSpaceOnUse" x1="4.82" y1="7.8139" x2="67.983" y2="70.9769">
							<stop  offset="0" style="stop-color:#EF3200"/>
							<stop  offset="1" style="stop-color:#FFA000"/>
						</linearGradient>
						<path fill="url(#SVGID_1_)" d="M43.999,25.025H20.554v-3.952h23.445V25.025z M44.732,42.401l14.731-14.803l-6.969-6.992
							L37.763,35.409l-0.001,0.001l-0.184,7.175l7.153-0.183L44.732,42.401z M64,23.047l-6.969-6.992l-3.008,3.017l6.969,6.992
							L64,23.047z M48.715,45.839c-6.815,8.122-18.305,9.971-27.179,4.93l-6.479,1.655l0.505-6.668
							c-6.505-7.864-6.679-19.501,0.136-27.622c7.675-9.146,21.287-10.359,30.405-2.708c1.379,1.157,2.573,2.452,3.585,3.846
							l0.199-0.2l-0.001-0.001l0.526-0.528l0.005-0.005l1.95-1.959c-1.12-1.464-2.404-2.819-3.85-4.032
							c-4.541-3.81-10.306-5.909-16.233-5.909h-0.002c-2.953,0-5.837,0.516-8.547,1.484c-0.66-0.061-1.324-0.097-1.991-0.097h-0.002
							c-6.44,0-12.51,2.832-16.654,7.77c-6.582,7.844-6.785,19.165-0.578,27.189l-0.415,5.48l-0.183,2.412l2.343-0.599l5.298-1.353
							l-0.244,3.216l-0.395,5.22l5.072-1.296l5.079-1.298c3.436,1.676,7.237,2.556,11.084,2.556c7.52,0,14.607-3.306,19.443-9.069
							c3.488-4.157,5.512-9.201,5.884-14.509l-4.709,4.732C51.937,41.097,50.592,43.602,48.715,45.839z M38.548,30.466H20.554v3.952
							h14.07L38.548,30.466z M34.717,39.86H20.554v3.952h14.061l0.033-1.301L34.717,39.86z"/>
					</g>
				</g>
			</g>
		</g>
	</g>
</g>
<g>
</g>
<g>
</g>
<g>
</g>
<g>
</g>
<g>
</g>
<g>
</g>
<g>
</g>
<g>
</g>
<g>
</g>
<g>
</g>
<g>
</g>
<g>
</g>
<g>
</g>
<g>
</g>
<g>
</g>
</svg>
