<svg id="辞書_1_" xmlns="http://www.w3.org/2000/svg" width="64" height="64" viewBox="0 0 64 64"><style>.st0{fill:#c18a53}.st2{fill:#e0e0e0}.st3{fill:#fff}.st7{fill:#c1c1c1}</style><path class="st0" d="M-.001 14.871v41h11.956l40.084-41z"/><path class="st0" d="M11.955 55.871h52.044v-41h-11.96z"/><path fill="#a47547" d="M11.955 55.871h52.044v-41h-11.96z"/><path class="st2" d="M32.299 14.071c-1.9-1.9-12.6-8.5-27.3-1.7v38.5h54v-33.7-4.8c-14.1-6.6-25.3.3-26.7 1.7z"/><path class="st3" d="M32.283 50.07V18.055C30.343 16.136 19.662 9.588 5 16.271V48.364c14.69-6.788 25.382-.194 27.283 1.706z"/><path d="M32.283 50.071c0-.001 0-.001 0 0l-.001.8h26.701v-2.5c-14.1-6.6-25.3.3-26.7 1.7z" fill="#afafaf"/><path class="st3" d="M4.999 48.364v2.507h27.283v-.801c-1.9-1.9-12.592-8.494-27.283-1.706z"/><path d="M4.999 48.364v2.507h27.283v-.801c-1.9-1.9-12.592-8.494-27.283-1.706z" fill="#c6c6c6"/><path class="st2" d="M9.417 21.871h19v3h-19zM9.417 28.871h19v3h-19zM9.417 35.871h19v3h-19z"/><path fill="#dd4a4a" d="M21.999 31.171l-5-5.4-5 5.4v-22.3h10z"/><path class="st7" d="M35.999 21.871h19v3h-19zM35.999 28.871h19v3h-19zM35.999 35.871h19v3h-19z"/></svg>