<svg xmlns="http://www.w3.org/2000/svg" width="64" height="64" viewBox="0 0 64 64"><defs><style>.a{fill:#cc0033;}.b{fill:#fff;}</style></defs><path class="a" d="M32.001,24.982a7.014,7.014,0,0,0,0,14.025,6.645,6.645,0,0,0,6.864-6.41858q.007-.20613.001-.41242v-.364a6.643,6.643,0,0,0-6.44946-6.831Q32.20881,24.975,32.001,24.982Z"/><path class="a" d="M46.765,5V40.731c-5.031,2.308-7.722,5.79-14.935,5.79A14.529,14.529,0,0,1,31.412,17.466q.209-.003.41806,0a13.654,13.654,0,0,1,6.933,1.787V5H31.999a27,27,0,1,0,27,27V5Z"/><path class="b" d="M31.831,17.466a14.529,14.529,0,0,0-.418,29.055q.209.003.418,0c7.213,0,9.9-3.482,14.935-5.79V5h-8V19.253A13.6552,13.6552,0,0,0,31.831,17.466Zm7.035,14.71a6.645,6.645,0,0,1-6.45257,6.832q-.20619.00585-.41242-.001a7.014,7.014,0,0,1,0-14.025,6.643,6.643,0,0,1,6.864,6.41446q.007.20769.001.41553Z"/></svg>