<svg xmlns="http://www.w3.org/2000/svg" xmlns:xlink="http://www.w3.org/1999/xlink" version="1.1" id="&#12524;&#12452;&#12516;&#12540;_1" x="0px" y="0px" viewBox="-2.4 120.9 600 600" enable-background="new -2.4 120.9 600 600" xml:space="preserve"><path fill="#404040" d="M564.1 499.2c-10.4-94.5-34-156.6-69.9-207.6c-28.5-40.4-67.5-54-112-54c-12.5 0-47.2 0-82.1 0 c-0.3 0-0.6 0-0.9 0c-34.9 0-69.6 0-82.1 0c-44.5 0-83.5 13.6-112 54c-35.9 51-59.5 113.1-69.9 207.6 C22.3 612.6 124 624.3 172.9 578c21.7-20.5 50.5-56 61.1-66.6c4.4-4.4 16.3-12.1 25.6-12.1c9.1 0 23.9 0 39.5 0c0.3 0 0.6 0 0.9 0 c15.6 0 30.4 0 39.5 0c9.3 0 21.2 7.7 25.6 12.1c10.6 10.6 39.3 46 61.1 66.6C475 624.3 576.6 612.6 564.1 499.2z"/><g><path fill="#2B2B2B" d="M494.2 291.7c-15.6-22-34.2-36.1-55.3-44.3l-353 352.9c29.1 8.6 63.9-0.3 87-22.2 c21.7-20.5 50.5-56 61.1-66.6c4.4-4.4 16.3-12.1 25.6-12.1c9.1 0 23.9 0 39.5 0c0.3 0 0.6 0 0.9 0c15.6 0 30.4 0 39.5 0 c9.3 0 21.2 7.7 25.6 12.1c10.6 10.6 39.3 46 61.1 66.6c48.9 46.3 150.6 34.6 138.1-78.9C553.7 404.8 530.1 342.7 494.2 291.7z"/></g><path fill="#CCCCCC" d="M207.3 327.3v22.4h22.4c13.3 0 24.1 10.3 24.1 22.9s-10.8 22.9-24.1 22.9h-22.4V418 c0 13.3-10.3 24.1-22.9 24.1c-12.6 0-22.9-10.8-22.9-24.1v-22.4h-22.5c-13.3 0-24.1-10.3-24.1-22.9s10.8-22.9 24.1-22.9h22.4v-22.4 c0-13.3 10.3-24.1 22.9-24.1C196.8 303.2 207.3 314 207.3 327.3z"/><g><path fill="#BC4D4D" d="M407 407.9c0 16.3-13.2 29.4-29.4 29.4c-16.3 0-29.4-13.2-29.4-29.4c0-16.3 13.2-29.4 29.4-29.4 S407 391.8 407 407.9z"/><path fill="#3F73B2" d="M465.7 337.4c0 16.3-13.2 29.4-29.4 29.4c-16.3 0-29.4-13.2-29.4-29.4c0-16.3 13.2-29.4 29.4-29.4 C452.5 307.9 465.7 321.1 465.7 337.4z"/></g></svg>