<svg xmlns="http://www.w3.org/2000/svg" xmlns:xlink="http://www.w3.org/1999/xlink" version="1.1" viewBox="0 0 64 64"><path fill="#EDE8D3" d="M9.2 52.7c0 1.2 1 2.3 2.3 2.3h40.9c1.3 0 2.3-1 2.3-2.3V28.1h0l-21-16.8c-1-0.8-2.6-0.8-3.6 0l-21 16.8h0 V52.7z"/><path fill="#E2DBBC" d="M9.4 53.5c0.3 0.9 1.2 1.5 2.2 1.5h40.9c1.3 0 2.3-1 2.3-2.3V28.1h0l-6.2-4.9L9.4 53.5z"/><path fill="#E2DBBC" d="M33.8 11.3c-0.4-0.3-0.9-0.5-1.4-0.6L9.2 28.8v5.4l27-21L33.8 11.3z"/><rect x="24" y="32" opacity="0.7" fill="#7A604E" width="15" height="23"/><g><path fill="#A9CB57" d="M60.4 23.8L34.9 3.6c0 0 0 0-0.1 0c-0.1-0.1-0.3-0.2-0.4-0.3c-0.1-0.1-0.2-0.1-0.3-0.2 C33.9 3 33.8 3 33.7 2.9c-0.1-0.1-0.3-0.1-0.4-0.1c-0.1 0-0.3-0.1-0.4-0.1c-0.2 0-0.3-0.1-0.5-0.1c-0.1 0-0.3 0-0.4 0 c-0.2 0-0.3 0-0.5 0c-0.1 0-0.3 0-0.4 0.1c-0.2 0-0.3 0-0.4 0.1c-0.1 0-0.2 0.1-0.4 0.1C30.2 3 30.1 3 29.9 3.1 c-0.1 0.1-0.2 0.1-0.3 0.2c-0.1 0.1-0.3 0.2-0.4 0.3c0 0 0 0-0.1 0L3.6 23.8c-1.9 1.5-2.1 4.1-0.5 5.8c0.9 1 2.1 1.5 3.4 1.5 c1 0 2-0.3 2.9-1l22.7-18l22.7 18c0.8 0.7 1.9 1 2.9 1c1.3 0 2.5-0.5 3.4-1.5C62.5 27.9 62.3 25.3 60.4 23.8z"/><path fill="#93AF2E" d="M54.7 30.1c0.8 0.7 1.9 1 2.9 1c1.3 0 2.5-0.5 3.4-1.5c1.6-1.7 1.4-4.4-0.5-5.8L38.8 6.7L32 12.2L54.7 30.1 z"/></g></svg>