<svg xmlns="http://www.w3.org/2000/svg" width="18" height="18" viewBox="0 0 18 18"><path d="M2,0H2A2,2,0,0,1,4,2H4A2,2,0,0,1,2,4H2A2,2,0,0,1,0,2H0A2,2,0,0,1,2,0Z" style="fill:#a2a2a2"/><path d="M2,7H2A2,2,0,0,1,4,9H4a2,2,0,0,1-2,2H2A2,2,0,0,1,0,9H0A2,2,0,0,1,2,7Z" style="fill:#a2a2a2"/><path d="M2,14H2a2,2,0,0,1,2,2H4a2,2,0,0,1-2,2H2a2,2,0,0,1-2-2H0A2,2,0,0,1,2,14Z" style="fill:#a2a2a2"/><path d="M9,0H9a2,2,0,0,1,2,2h0A2,2,0,0,1,9,4H9A2,2,0,0,1,7,2H7A2,2,0,0,1,9,0Z" style="fill:#a2a2a2"/><path d="M9,7H9a2,2,0,0,1,2,2h0a2,2,0,0,1-2,2H9A2,2,0,0,1,7,9H7A2,2,0,0,1,9,7Z" style="fill:#a2a2a2"/><path d="M9,14H9a2,2,0,0,1,2,2h0a2,2,0,0,1-2,2H9a2,2,0,0,1-2-2H7A2,2,0,0,1,9,14Z" style="fill:#a2a2a2"/><path d="M16,0h0a2,2,0,0,1,2,2h0a2,2,0,0,1-2,2h0a2,2,0,0,1-2-2h0A2,2,0,0,1,16,0Z" style="fill:#a2a2a2"/><path d="M16,7h0a2,2,0,0,1,2,2h0a2,2,0,0,1-2,2h0a2,2,0,0,1-2-2h0A2,2,0,0,1,16,7Z" style="fill:#a2a2a2"/><path d="M16,14h0a2,2,0,0,1,2,2h0a2,2,0,0,1-2,2h0a2,2,0,0,1-2-2h0A2,2,0,0,1,16,14Z" style="fill:#a2a2a2"/></svg>