<svg xmlns="http://www.w3.org/2000/svg" xmlns:xlink="http://www.w3.org/1999/xlink" width="40" height="40" viewBox="0 0 40 40"><defs><clipPath id="a"><path d="M20,0A20.22,20.22,0,0,1,37.94,11.14,19.35,19.35,0,0,1,40,20,20,20,0,1,1,20,0Z" style="fill:none"/></clipPath></defs><g style="clip-path:url(#a)"><path d="M20,0A20.22,20.22,0,0,1,37.94,11.14,19.35,19.35,0,0,1,40,20,20,20,0,1,1,20,0Z" style="fill:#666"/><circle cx="19.98" cy="19.98" r="19.98" style="fill:none"/><ellipse cx="19.98" cy="33.46" rx="14.98" ry="13.48" style="fill:#fff"/><path d="M20,21.74a8.32,8.32,0,0,1-8-8.55A8.32,8.32,0,0,1,20,4.64,8.32,8.32,0,0,1,28,13.19,8.33,8.33,0,0,1,20,21.74Z" style="fill:#fff"/><path d="M20,5.64a7.32,7.32,0,0,0-7,7.55A7.32,7.32,0,0,0,20,20.74,7.33,7.33,0,0,0,27,13.19,7.32,7.32,0,0,0,20,5.64m0-2A9.31,9.31,0,0,1,29,13.19,9.32,9.32,0,0,1,20,22.74a9.31,9.31,0,0,1-9-9.55A9.31,9.31,0,0,1,20,3.64Z" style="fill:#666"/><circle cx="19.98" cy="19.98" r="19.98" style="fill:none"/><circle cx="19.98" cy="19.98" r="19.48" style="fill:none;stroke:#666"/></g></svg>