<?xml version="1.0" encoding="utf-8"?>
<!-- Generator: Adobe Illustrator 18.1.1, SVG Export Plug-In . SVG Version: 6.00 Build 0)  -->
<svg version="1.1" id="レイヤー_1" xmlns="http://www.w3.org/2000/svg" xmlns:xlink="http://www.w3.org/1999/xlink" x="0px"
	 y="0px" viewBox="-29.1 145.3 900 900" enable-background="new -29.1 145.3 900 900" xml:space="preserve">
<path fill="#CCCCCC" d="M744.9,857.7H99.3c-39.4,0-71.8-32.8-71.8-71.8V403.3c0-38.9,32.8-71.8,72.4-71.8h645.7
	c39,0,71.3,32.8,71.3,71.8V786c0,38.9-32.8,71.8-72.4,71.8h0.4V857.7z"/>
<path fill="#B2B2B2" d="M805.4,824.5L472,584c-33.5-22.9-65.4-23.2-99.2,0L39.4,824.5c12.8,19.8,35.1,33.1,60.2,33.1h645.2
	C769.9,857.7,792.4,844.3,805.4,824.5z"/>
<path fill="#E5E5E5" d="M745.5,331.5H99.9c-39.4,0-72.4,32.8-72.4,71.8v23c0,0,314,227.3,355.7,250.3c26.7,14.7,58.9,14,84.2,0
	c29.7-16.6,349.4-250.3,349.4-250.3v-23C816.8,364.3,784.5,331.5,745.5,331.5z"/>
</svg>
