<svg xmlns="http://www.w3.org/2000/svg" xmlns:xlink="http://www.w3.org/1999/xlink" version="1.1" id="&#22320;&#22259;" x="0px" y="0px" viewBox="0 0 64 64" enable-background="new 0 0 64 64" xml:space="preserve"><path fill="#C4C4C4" d="M21.5 62L0.3 55.7L3.6 8.6L21.4 13l19.4-7.4l20 6l2.8 48l-21.4-5.8L21.5 62z"/><polygon fill="#E3DCD6" points="57,14.6 41,9.8 21.7,17.2 7.3,13.6 4.5,52.8 21.3,57.8 42,49.5 59.3,54.2"/><polygon fill="#D4CBBA" points="27.5,35.7 41.4,30.9 41.5,30.9 41.6,30.4 41,9.8 41,9.8 21.7,17.2 21.5,17.1 21.5,23.8"/><polygon fill="#C2E590" points="41.1,45.8 33.8,48.3 35.7,52 42,49.5 42.2,49.5 42,45.5"/><polygon fill="#FFFFFF" points="41.5,35.1 41.7,35.1 41.6,31.2 41.5,31.2 41.2,35.2"/><polygon fill="#FFFFFF" points="41.6,31.2 41.6,30.9 41.5,30.9 41.5,31.2"/><polygon fill="#9AD3D0" points="22.5,48 21.4,45.9 21.4,48.4 21.5,48.4"/><polygon fill="#9AD3D0" points="41.7,35.1 41.5,35.1 41.2,35.2 29.3,39.3 32,44.7 40.6,41.7 41.8,41.3 41.9,41.4"/><polygon fill="#FFFFFF" points="27.3,35.9 27.6,35.8 27.5,35.7 27.2,35.8"/><polygon fill="#FFFFFF" points="33.8,48.4 33.8,48.3 33.7,48.1"/><polygon fill="#FFFFFF" points="42,43 41.9,41.4 41.8,41.3 40.6,41.7 32,44.7 29.3,39.3 41.2,35.2 41.5,31.2 41.5,30.9 41.4,30.9 27.5,35.7 27.6,35.8 27.3,35.9 27.2,35.8 27.5,35.7 21.5,23.8 21.5,24.3 21.5,37.8 21.5,42 21.4,45.9 22.5,48 21.5,48.4 21.4,48.4 21.4,52.6 21.5,52.6 24.3,51.6 26.4,55.7 34.5,52.5 35.7,52 33.8,48.3 33.8,48.4 33.7,48.1 33.8,48.3 41.1,45.8 41.9,45.5 42,45.6"/><polygon fill="#C9C1B1" points="4.9,47.1 4.5,52.8 21.3,57.8 21.4,57.7 21.4,52.6"/><polygon fill="#B8D989" points="16.6,36.2 7,17.3 6,32.4 12.9,35"/><polygon fill="#C9C1B1" points="21.5,17.1 17.7,16.2 21.5,23.8"/><polygon fill="#F2F2F2" points="21.4,48.4 5.2,42.7 4.9,47.1 21.4,52.6"/><polygon fill="#92C8C5" points="21.4,45.9 19.1,41.2 5.7,36.5 5.2,42.7 21.4,48.4"/><polygon fill="#F2F2F2" points="17.7,16.2 17.5,16.1 7.3,13.6 7.1,17 7,17.3 16.6,36.2 12.9,35 5.9,32.4 5.7,36.5 19.1,41.2 21.4,45.9 21.5,42 21.5,37.8 21.5,24.3 21.5,23.8"/><polygon fill="#C9C1B1" points="41,9.8 41.6,30.4 43.3,10.5"/><polygon fill="#B8D989" points="58.2,35.5 57,14.6 50.2,12.5 48.4,32.8"/><polygon fill="#B8D989" points="59.3,53.8 59.1,50.3 42.3,45.6 42,45.7 42.2,49.5 58.1,53.9 59.3,54.2"/><polygon fill="#F2F2F2" points="58.8,45.8 52.7,44.2 47.5,42.8 41.9,41.4 42,43 42,45.6 42.3,45.6 59.1,50.3"/><polygon fill="#F2F2F2" points="58.2,36 58.2,35.5 48.4,32.8 50.2,12.5 44,10.7 44,10.7 43.3,10.5 41.6,30.4 41.5,30.9 41.6,30.9 41.6,31.2 41.7,35.1 48.1,36.8 58.4,39.5"/><polygon fill="#92C8C5" points="58.7,43.4 58.4,39.5 48.1,36.8 41.7,35.1 41.9,41.4 47.5,42.8 52.7,44.2 58.8,45.8"/><polygon opacity="0.15" enable-background="new    " points="30.8,15.1 47.1,15.6 31.9,23"/><polygon fill="#ED662B" points="49,0 28,0 28,8 28,16 28,23 32,23 32,16 49,16"/></svg>