<svg xmlns="http://www.w3.org/2000/svg" width="64" height="64" viewBox="0 0 64 64"><path d="M62.6107,18.4716a13.7773,13.7773,0,0,0-4.76-10.1745A20.1024,20.1024,0,0,0,44.2963,3.3044c-10.1148,0-18.3144,6.7906-18.3144,15.1672a12.9153,12.9153,0,0,0,1.44,5.9059,24.3667,24.3667,0,0,1,10.1692,4.1787,20.4844,20.4844,0,0,1,4.9466,5.0091c.5791.0457,1.1647.0736,1.7582.0736a21.2991,21.2991,0,0,0,8.6081-1.7821c.9683.46,2.2739,1.068,2.6869,1.2012a1.3866,1.3866,0,0,0,1.4749-.2642c.2641-.2862.066-.7484-.4623-1.2326-.267-.2447-.7131-.7136-1.09-1.1183C59.8255,27.668,62.6107,23.3439,62.6107,18.4716Z" style="fill:#f96"/><path d="M40.4938,24.7365c-.1969.54-.5386,1.0968-1.2584,1.0968-.7912,0-2.1211-.54-2.1211-1.4562a2.0019,2.0019,0,0,1,.144-.8094L41.195,12.5646a3.1418,3.1418,0,0,1,6.0235,0l3.9376,11.0031a2.2742,2.2742,0,0,1,.1616.7374c0,1.1683-1.6,1.5282-2.1759,1.5282-.665,0-1.0244-.5573-1.2222-1.0968l-.7374-2.0678h-5.951Zm1.798-4.9982h3.8475l-1.4924-4.1712c-.1792-.5034-.3408-.521-.4309-.521-.1616,0-.3055.1077-.45.521Z" style="fill:#fff"/><path d="M23.0023,26.7021c-10.99,0-19.8993,7.3782-19.8993,16.48,0,5.376,3.1225,10.136,7.932,13.1442-.39.4264-1.12,1.2138-1.497,1.5594-.5283.4843-.7264.9465-.4622,1.2327a1.3866,1.3866,0,0,0,1.4748.2641c.5294-.1707,2.524-1.1206,3.3941-1.5391a23.17,23.17,0,0,0,9.0576,1.8184c10.99,0,19.8993-7.3782,19.8993-16.48S33.9924,26.7021,23.0023,26.7021Z" style="fill:#ff8431"/><path d="M29.376,48.9662a1.57,1.57,0,0,1,.593,1.0958,1.6627,1.6627,0,0,1-1.3661,1.4571,1.6218,1.6218,0,0,1-1.133-.5033l-1.2942-1.2231a7.329,7.329,0,0,1-3.4881.7912c-3.9734,0-7.1732-2.5529-7.1732-7.6226,0-6.85,4.8-7.893,7.1732-7.893,3.6316,0,7.1555,2.1936,7.1555,7.6952a9.1128,9.1128,0,0,1-1.4919,5.25ZM25.7982,45.64a6.4766,6.4766,0,0,0,.521-2.8223c0-.7736,0-4.7289-3.6316-4.7289s-3.6316,3.9553-3.6316,4.7289c0,.8089,0,4.7465,3.6316,4.7465a4.4209,4.4209,0,0,0,.9528-.1086l-.3775-.3594a1.4052,1.4052,0,0,1,.827-2.553,1.6045,1.6045,0,0,1,1.0787.5034Z" style="fill:#fff"/></svg>