<svg xmlns="http://www.w3.org/2000/svg" xmlns:xlink="http://www.w3.org/1999/xlink" version="1.1" viewBox="0 0 64 64"><g><g><path fill="#FF8F33" d="M20.8 48.5l1.9-4.9c0.5-1.4-0.1-3-1.6-3.5c-1.4-0.5-3 0.1-3.5 1.5l-1.9 4.9c-0.5 1.4 0.1 2.9 1.6 3.5 C18.7 50.6 20.3 49.9 20.8 48.5z"/><path fill="#FF8F33" d="M32.7 10.2c1.4 0.5 3-0.1 3.5-1.5l1.9-4.9c0.5-1.4-0.2-2.9-1.6-3.5c-1.4-0.5-3 0.1-3.5 1.5l-1.9 4.9 C30.6 8.1 31.3 9.6 32.7 10.2z"/><path fill="#FF8F33" d="M11.8 19.3c0.5-1.4-0.2-2.9-1.6-3.5l-5-1.9c-1.4-0.5-3 0.1-3.5 1.5c-0.5 1.4 0.2 2.9 1.6 3.5l5 1.9 C9.7 21.3 11.3 20.6 11.8 19.3z"/><path fill="#FF8F33" d="M42.1 31c-0.5 1.4 0.2 2.9 1.6 3.5l5 1.9c1.4 0.5 3-0.1 3.5-1.5c0.5-1.4-0.2-2.9-1.6-3.5l-5-1.9 C44.2 28.9 42.6 29.6 42.1 31z"/><path fill="#FF8F33" d="M41.7 18.7c0.6 1.4 2.2 2 3.6 1.4l4.9-2.1c1.4-0.6 2-2.2 1.4-3.5C51 13 49.4 12.4 48 13l-4.9 2.1 C41.7 15.7 41.1 17.3 41.7 18.7z"/><path fill="#FF8F33" d="M12.1 31.5c-0.6-1.4-2.2-2-3.6-1.4l-4.9 2.1c-1.4 0.6-2 2.2-1.4 3.5c0.6 1.4 2.2 2 3.6 1.4l4.9-2.1 C12.1 34.5 12.8 32.9 12.1 31.5z"/><path fill="#FF8F33" d="M20.3 10.4c1.4-0.6 2-2.2 1.4-3.6L19.5 2c-0.6-1.4-2.2-2-3.6-1.4c-1.4 0.6-2 2.2-1.4 3.5L16.7 9 C17.3 10.4 18.9 11 20.3 10.4z"/><path fill="#FF8F33" d="M39.3 46.1l-2.2-4.9c-0.6-1.4-2.2-2-3.6-1.4c-1.4 0.6-2 2.2-1.4 3.6l2.2 4.9c0.6 1.4 2.2 2 3.6 1.4 C39.4 49 40 47.5 39.3 46.1z"/></g><path fill="#FF8F33" d="M32.6 37.6c-6.9 3-15.1-0.1-18.2-7s0-14.9 6.9-17.9s15.1 0.1 18.2 7S39.5 34.6 32.6 37.6z"/></g><g><path fill="#D3E7F4" d="M6.7 47.5c0 5.8 4.8 10.6 10.8 10.6h35.9c5.9 0 10.8-4.7 10.8-10.6c0-3.9-2.2-7.3-5.4-9.2 c-0.2-8.6-7.3-15.5-16.1-15.5c-5.8 0-10.9 3-13.7 7.5c-1.1-0.3-2.2-0.5-3.3-0.5c-5 0-9.3 3.1-10.9 7.4C10 38.5 6.7 42.7 6.7 47.5z"/><g><defs><path id="SVGID_1_" d="M6.7 47.5c0 5.8 4.8 10.6 10.8 10.6h35.9c5.9 0 10.8-4.7 10.8-10.6c0-3.9-2.2-7.3-5.4-9.2 c-0.2-8.6-7.3-15.5-16.1-15.5c-5.8 0-10.9 3-13.7 7.5c-1.1-0.3-2.2-0.5-3.3-0.5c-5 0-9.3 3.1-10.9 7.4C10 38.5 6.7 42.7 6.7 47.5 z"/></defs><clipPath id="SVGID_2_"><use xlink:href="#SVGID_1_" overflow="visible"/></clipPath><polygon opacity="0.3" clip-path="url(#SVGID_2_)" fill="#FFFFFF" points="68.3,10.3 5.7,71.9 5.7,10.3"/></g></g></svg>