<svg xmlns="http://www.w3.org/2000/svg" width="50" height="48.937" viewBox="0 0 50 48.937"><defs><style>.a{fill:#070308;}.b{fill:#fff;}</style></defs><ellipse class="a" cx="25" cy="24.468" rx="25" ry="24.468"/><g transform="translate(10.03 7.468)"><path class="b" d="M23.407,27.442A.781.781,0,0,0,23.4,29l2.078.008a2.384,2.384,0,0,1-1.741.766c-.967,0-2.166-.811-2.2-1.471s0-23.427,0-23.427A4.845,4.845,0,0,0,16.742,0a4.776,4.776,0,0,0-4.033,2.247A4.74,4.74,0,0,0,4.81,2,3.713,3.713,0,0,0,1.722.329a3.664,3.664,0,0,0-1.2.2.783.783,0,0,0-.479.991.765.765,0,0,0,.974.488,2.152,2.152,0,0,1,.707-.119,2.214,2.214,0,0,1,2.193,2.23A2.3,2.3,0,0,1,3.9,4.41a.744.744,0,0,0,0,.11c-.009.119-.018.238-.018.359V28.8a.728.728,0,0,0,.693.781h.149a.714.714,0,0,0,.693-.734V4.879a3.263,3.263,0,1,1,6.526,0l.006,23.928a.721.721,0,0,0,.69.773h.149a.714.714,0,0,0,.693-.734c0-.014,0-23.967,0-23.967a3.263,3.263,0,1,1,6.526,0V27.953s.015.571.018.611a.839.839,0,0,0,.046.222,3.9,3.9,0,0,0,6.391,1.436V32.4A.768.768,0,1,0,28,32.4V28.237a.772.772,0,0,0-.763-.781Z" transform="translate(0 0)"/></g></svg>