<svg xmlns="http://www.w3.org/2000/svg" width="50" height="50" viewBox="0 0 50 50"><defs><style>.a{fill:#070308;}.b{fill:none;}.b,.c{stroke-miterlimit:10;}.c,.e{fill:#fff;}.d,.e{stroke:none;}</style></defs><path class="a" d="M25,0A25,25,0,1,1,0,25,25,25,0,0,1,25,0Z"/><g transform="translate(10.87 10.87)"><g class="b"><path class="d" d="M0,0H28.261V27.174H0Z"/><path class="e" d="M 1.999994277954102 1.999996185302734 L 1.999994277954102 25.17391586303711 L 26.2608642578125 25.17391586303711 L 26.2608642578125 1.999996185302734 L 1.999994277954102 1.999996185302734 M -5.7220458984375e-06 -3.814697265625e-06 L 28.2608642578125 -3.814697265625e-06 L 28.2608642578125 27.17391586303711 L -5.7220458984375e-06 27.17391586303711 L -5.7220458984375e-06 -3.814697265625e-06 Z"/></g><g class="b" transform="translate(1.478 0.713)"><path class="d" d="M0,0H9.357V9.145H0Z"/><path class="e" d="M 0.9999980926513672 1.000003814697266 L 0.9999980926513672 8.144723892211914 L 8.35739803314209 8.144723892211914 L 8.35739803314209 1.000003814697266 L 0.9999980926513672 1.000003814697266 M -1.9073486328125e-06 3.814697265625e-06 L 9.35739803314209 3.814697265625e-06 L 9.35739803314209 9.144723892211914 L -1.9073486328125e-06 9.144723892211914 L -1.9073486328125e-06 3.814697265625e-06 Z"/></g><g class="b" transform="translate(10.116 0.713)"><path class="d" d="M0,0H9.357V9.145H0Z"/><path class="e" d="M 0.9999980926513672 1.000003814697266 L 0.9999980926513672 8.144723892211914 L 8.35739803314209 8.144723892211914 L 8.35739803314209 1.000003814697266 L 0.9999980926513672 1.000003814697266 M -1.9073486328125e-06 3.814697265625e-06 L 9.35739803314209 3.814697265625e-06 L 9.35739803314209 9.144723892211914 L -1.9073486328125e-06 9.144723892211914 L -1.9073486328125e-06 3.814697265625e-06 Z"/></g><g class="b" transform="translate(18.753 0.713)"><path class="d" d="M0,0H9.357V9.145H0Z"/><path class="e" d="M 0.9999980926513672 1.000003814697266 L 0.9999980926513672 8.144723892211914 L 8.35739803314209 8.144723892211914 L 8.35739803314209 1.000003814697266 L 0.9999980926513672 1.000003814697266 M -1.9073486328125e-06 3.814697265625e-06 L 9.35739803314209 3.814697265625e-06 L 9.35739803314209 9.144723892211914 L -1.9073486328125e-06 9.144723892211914 L -1.9073486328125e-06 3.814697265625e-06 Z"/></g><g class="b" transform="translate(1.478 9.154)"><path class="d" d="M0,0H9.357V9.145H0Z"/><path class="e" d="M 0.9999980926513672 1.000003814697266 L 0.9999980926513672 8.144723892211914 L 8.35739803314209 8.144723892211914 L 8.35739803314209 1.000003814697266 L 0.9999980926513672 1.000003814697266 M -1.9073486328125e-06 3.814697265625e-06 L 9.35739803314209 3.814697265625e-06 L 9.35739803314209 9.144723892211914 L -1.9073486328125e-06 9.144723892211914 L -1.9073486328125e-06 3.814697265625e-06 Z"/></g><g class="b" transform="translate(10.116 9.154)"><path class="d" d="M0,0H9.357V9.145H0Z"/><path class="e" d="M 0.9999980926513672 1.000003814697266 L 0.9999980926513672 8.144723892211914 L 8.35739803314209 8.144723892211914 L 8.35739803314209 1.000003814697266 L 0.9999980926513672 1.000003814697266 M -1.9073486328125e-06 3.814697265625e-06 L 9.35739803314209 3.814697265625e-06 L 9.35739803314209 9.144723892211914 L -1.9073486328125e-06 9.144723892211914 L -1.9073486328125e-06 3.814697265625e-06 Z"/></g><g class="c" transform="translate(18.753 9.154)"><path class="d" d="M 8.85739803314209 8.644723892211914 L 0.4999980628490448 8.644723892211914 L 0.4999980628490448 0.5000038743019104 L 8.85739803314209 0.5000038743019104 L 8.85739803314209 8.644723892211914 Z"/><path class="e" d="M 0.9999980926513672 1.000003814697266 L 0.9999980926513672 8.144723892211914 L 8.35739803314209 8.144723892211914 L 8.35739803314209 1.000003814697266 L 0.9999980926513672 1.000003814697266 M -1.9073486328125e-06 3.814697265625e-06 L 9.35739803314209 3.814697265625e-06 L 9.35739803314209 9.144723892211914 L -1.9073486328125e-06 9.144723892211914 L -1.9073486328125e-06 3.814697265625e-06 Z"/></g><g class="b" transform="translate(1.478 17.595)"><path class="d" d="M0,0H9.357V9.145H0Z"/><path class="e" d="M 0.9999980926513672 1.000003814697266 L 0.9999980926513672 8.144723892211914 L 8.35739803314209 8.144723892211914 L 8.35739803314209 1.000003814697266 L 0.9999980926513672 1.000003814697266 M -1.9073486328125e-06 3.814697265625e-06 L 9.35739803314209 3.814697265625e-06 L 9.35739803314209 9.144723892211914 L -1.9073486328125e-06 9.144723892211914 L -1.9073486328125e-06 3.814697265625e-06 Z"/></g><g class="c" transform="translate(10.116 17.595)"><path class="d" d="M 8.85739803314209 8.644723892211914 L 0.4999980628490448 8.644723892211914 L 0.4999980628490448 0.5000038743019104 L 8.85739803314209 0.5000038743019104 L 8.85739803314209 8.644723892211914 Z"/><path class="e" d="M 0.9999980926513672 1.000003814697266 L 0.9999980926513672 8.144723892211914 L 8.35739803314209 8.144723892211914 L 8.35739803314209 1.000003814697266 L 0.9999980926513672 1.000003814697266 M -1.9073486328125e-06 3.814697265625e-06 L 9.35739803314209 3.814697265625e-06 L 9.35739803314209 9.144723892211914 L -1.9073486328125e-06 9.144723892211914 L -1.9073486328125e-06 3.814697265625e-06 Z"/></g><g class="b" transform="translate(18.753 17.595)"><path class="d" d="M0,0H9.357V9.145H0Z"/><path class="e" d="M 0.9999980926513672 1.000003814697266 L 0.9999980926513672 8.144723892211914 L 8.35739803314209 8.144723892211914 L 8.35739803314209 1.000003814697266 L 0.9999980926513672 1.000003814697266 M -1.9073486328125e-06 3.814697265625e-06 L 9.35739803314209 3.814697265625e-06 L 9.35739803314209 9.144723892211914 L -1.9073486328125e-06 9.144723892211914 L -1.9073486328125e-06 3.814697265625e-06 Z"/></g></g></svg>