<?xml version="1.0" encoding="utf-8"?>
<!-- Generator: Adobe Illustrator 24.3.0, SVG Export Plug-In . SVG Version: 6.00 Build 0)  -->
<svg version="1.1" id="Capa_1" xmlns="http://www.w3.org/2000/svg" xmlns:xlink="http://www.w3.org/1999/xlink" x="0px" y="0px"
	 viewBox="0 0 384.4 38.9" style="enable-background:new 0 0 384.4 38.9;" xml:space="preserve">
<style type="text/css">
	.st0{fill:none;stroke:#FFFFFF;stroke-miterlimit:10;}
	.st1{fill:#FFFFFF;}
	.st2{fill:#F5B11A;}
	.st3{fill:#E5A224;}
</style>
<g>
	<path class="st0" d="M366,38.1H12.9c-6.8,0-12.4-5.6-12.4-12.4V13.1c0-6.8,5.6-12.4,12.4-12.4H366c6.8,0,12.4,5.6,12.4,12.4v12.6
		C378.4,32.5,372.9,38.1,366,38.1z"/>
	<rect x="354.7" y="9.3" class="st1" width="23.3" height="21.8"/>
	<g>
		<path class="st2" d="M364.9,0c-10.7,0-19.4,8.7-19.4,19.4s8.7,19.4,19.4,19.4c1.6,0,3.9,0,6.4,0l-16-16v-7h6V9.9h7l16,16
			c0-2.5,0-4.8,0-6.4C384.4,8.7,375.6,0,364.9,0z"/>
		<path class="st3" d="M368.4,16h6.1v7h-6.1v6h-7v-6h-6l16,16c6,0,13,0,13,0s0-7,0-13l-16-16V16z"/>
	</g>
	<g>
		<g>
			<rect x="354.4" y="15.9" class="st1" width="21" height="7.2"/>
		</g>
		<g>
			<rect x="361.3" y="9" class="st1" width="7.2" height="21"/>
		</g>
	</g>
	<g>
		<g>
			<g>
				<g>
					<polygon class="st1" points="81.9,31.5 61.7,31.5 61.7,29.6 64.6,29.6 64.6,8.4 61.7,8.4 61.7,6.4 81.5,6.4 81.5,12.9 
						79.1,12.9 79.1,9.1 71.4,9.1 71.4,17.6 74.6,17.6 74.6,14.9 76.9,14.9 76.9,22.2 74.6,22.2 74.6,19.5 71.4,19.5 71.4,28.9 
						79.4,28.9 79.4,24.6 81.9,24.6 					"/>
					<polygon class="st1" points="104.3,31.5 84.4,31.5 84.4,29.6 87.3,29.6 87.3,8.4 84.4,8.4 84.4,6.4 97.5,6.4 97.5,8.4 
						94.1,8.4 94.1,28.9 101.8,28.9 101.8,24.6 104.3,24.6 					"/>
					<path class="st1" d="M138.5,8.4h-2v14.3c0,6.9-4.2,9.3-10.7,9.3c-7.1,0-10.7-3-10.7-8.3V8.3h-2.3v-2h12v2h-2.9v14.2
						c0,5.5,2.2,6.8,6.2,6.8c4.2,0,5.7-2.2,5.7-6.8V8.3h-3.2v-2h8L138.5,8.4z"/>
					<path class="st1" d="M147.6,29.6h3.3v2h-9v-2h2.9V9.5L144,8.4h-2.9v-2h9.6l12.2,16.7V8.4h-3.8v-2h9.3v2h-2.7V32h-4.4
						l-13.7-18.7L147.6,29.6z"/>
					<polygon class="st1" points="184.1,31.5 171.1,31.5 171.1,29.6 174.1,29.6 174.1,8.4 171.1,8.4 171.1,6.4 184.1,6.4 184.1,8.4 
						181,8.4 181,29.6 184.1,29.6 					"/>
					<polygon class="st1" points="202.1,32.2 198.1,32.2 188.8,8.4 186.7,8.4 186.7,6.4 199.5,6.4 199.5,8.4 195.8,8.4 202.1,25.1 
						208.6,8.4 205.8,8.4 205.8,6.4 213.4,6.4 213.4,8.4 211.4,8.4 					"/>
					<polygon class="st1" points="236,31.5 216.1,31.5 216.1,29.6 218.2,29.6 218.2,8.4 216.1,8.4 216.1,6.4 235.6,6.4 235.6,12.9 
						233.1,12.9 233.1,9.1 225.1,9.1 225.1,17.6 228.7,17.6 228.7,14.9 231,14.9 231,22.2 228.7,22.2 228.7,19.5 225.1,19.5 
						225.1,28.9 233.5,28.9 233.5,24.6 236,24.6 					"/>
					<path class="st1" d="M252.5,20c6.6-0.6,7.9-3.5,7.9-6.4c0-4.6-2.9-7.2-9.2-7.2h-12.7v2h3.2v21.2h-3.2v2h12.7v-2h-2.7v-7.9h1
						l5.8,9.9h8.3v-2h-1.8l-3.5-5.6c-1.8-2.8-2.4-3.5-5.8-3.8L252.5,20L252.5,20z M248.5,8.9h0.3c3.8,0,4.5,1.5,4.5,4.8
						s-0.5,5.5-4.6,5.5h-0.2V8.9z"/>
					<path class="st1" d="M268.8,31.9h-2.6v-7.3h2.6v4.1c1.8,0.5,3.4,0.6,5.6,0.6c3.2,0,4.3-0.9,4.3-3.1c0-1.8-1.5-2.6-5.1-4.3
						c-5.5-2.7-7.4-4.5-7.4-9c0-4.7,3.5-7,8.3-7c1.5,0,4.8,0.5,6,1.4V5.8h2.4v7.1h-2.4V9.2c-1.4-0.4-3-0.5-4.4-0.5
						c-2.6,0-3.9,0.8-3.9,2.7c0,2.3,1.5,2.9,4.7,4.5c4.3,2.1,7.6,3.8,7.6,8.8c0,4.8-3.7,7.2-8.8,7.2c-2.2,0-5.3-0.5-7.1-1.5v1.5
						H268.8z"/>
					<path class="st1" d="M292.7,24.5h9.1l1.9,5h-3.1v2h12.1v-2h-2.2l-9.3-23.8h-4L288,29.6h-2.4v2h7.7v-2h-2.6L292.7,24.5z
						 M301,22.4h-7.5l3.8-9.7L301,22.4z"/>
					<polygon class="st1" points="334.4,31.5 315.3,31.5 315.3,29.6 317.4,29.6 317.4,8.4 315.3,8.4 315.3,6.4 326.9,6.4 326.9,8.4 
						324.2,8.4 324.2,28.9 331.9,28.9 331.9,24.6 334.4,24.6 					"/>
				</g>
			</g>
		</g>
		<g>
			<g>
				<path class="st1" d="M19,23.3c1.5,0.8,2.6,1,7.8,1.2c0.8-0.1-1.5-0.4-2-0.5c-1.7-0.5-0.2-0.8-1.4-0.7c-1.1,0.1-2.5-0.1-3.4-0.2
					C19,22.9,17.9,22.4,19,23.3z"/>
				<path class="st1" d="M45.3,17c0.1-0.1,0.1-0.2,0.2-0.3C45.5,16.8,45.4,16.9,45.3,17z"/>
				<path class="st1" d="M28.3,27.4c0.4,0.6,2.2,0.6,2.9,0.4c0.5,0,0.2-0.3-0.1-0.3c-0.3,0.1-0.7-0.3-0.7-0.2
					C28.9,27.7,28.2,27.2,28.3,27.4z"/>
				<path class="st1" d="M58.2,19c-2.4,0.4-8.7-0.9-11.4,0.3c0.4-1.2,0.6-2.4,0.6-4c0-6.9-5.6-12.6-12.5-12.6S22.4,8.3,22.4,15.3
					c0,1.4,0.2,2.8,0.7,4.1c-9.8,0.7-10.8-1-11-0.1c0.1,2.2,3.3,4.2,4.7,4.1c0,0,1.8,2.2,4.9,2.4c0,0,1.2,1.2,2.9,1.3
					c0.4,0.6,1.4,1.4,2.5,1.1c0,0,0.3,0.6,1,0.7c0,0,0,0.3,0.3,0.4c-0.7,0-5.2,0.8-7.2,2.4c0.2,0.8,1.8,1.3,2.3,1.3
					c0.4,0.8,1.4,1.5,2.3,1.5c0.9,0.9,2,1.1,2.8,1c0.8,0.3,2.8-0.3,3.1-1.8c0.1-0.6,0.6-1.5,1.4-1.6c0,0,0.4,0.1,0.7,0.4
					c-0.4,0.4-0.6,1.7,0.2,2.2c0.7,0.5,1.5,0.4,2.3,0.3c0.5,0.5,0.9,0.1,1.1,0.2c-0.1,0.2,0.4,0.5,0.9,0.3s0.5-0.4,0.6-0.5
					c0.2-0.1,0.2-0.4,0.1-0.4c0.3-0.1,0.2-0.3,0.2-0.4c0.3,0.1,0.6-0.4,0.6-0.7c0-0.6-0.4-0.7-0.9-0.7c0.6-0.5,1.4-0.5,2.5-0.7
					c1-0.1,1.7-0.4,2.2-0.7c0.6-0.2,1.2-0.2,1.7-0.3c0.4-0.1,0.6-0.1,0.9-0.1c0.1,0.1,0.6,0.3,1.8,0.1c1.3-0.2,2.9-0.2,2.9-0.2
					c0.8-2.2-1.1-2.5-1.1-2.5c-0.3-0.6-0.5-1.1-1.4-1.3c-0.9-0.2-1.1-0.2-1.2-0.6c-0.3,0-0.5,0-0.6,0c0.2-0.1,0.4-0.2,0.6-0.3
					c1.8-0.5,2.2-1,2.4-1.3c2.3-0.1,2.9-0.7,3.8-1.3c1.1-0.2,1.7-0.5,2.3-1.4C58.9,22.3,59.3,18.8,58.2,19z M38.7,26.4
					c-0.1,0-0.2-0.2-0.2-0.3c0.4-0.1,1.2-0.4,1.6-0.7c1-0.6,0,0.1-0.3,0.5C39.7,25.8,39.5,26.1,38.7,26.4z M28.9,19.5
					c0,0-0.2-0.5,0.1-0.6c0.4-0.1,1.1-0.8,1.5-0.9c0,0,0.3-0.4-1.7,0.5c0-0.2,0-0.2,0-0.5c0.1,0,0.4-0.2,0.7-0.3
					c0-0.2-0.5-0.1-0.7-0.2c-0.1-0.1,0-0.3,0-0.7c0.9,0.2,1.5,0.3,2.5,0.4c0.1,0.1,1,0.6,0.6,0.1v-0.1c0.2,0,0.3,0,0.5,0
					c0.1,0.2,0.1,0.3,0.1,0.3s0,0,0.1,0.1v1.6c-0.2,0.1-0.6,0.4-0.9,0.5s-0.5,0.1-0.7,0.1c0.5-0.3,0.7-0.7,1.4-1.1
					c0,0-0.4-0.4-1.9,0.8c-0.3,0.3-0.8,0.3-1.1,0.3l0,0c0.6-0.3,1.5-1.3,2.1-1.5C31.6,18.3,31.2,18.1,28.9,19.5z M25.7,19.7h-0.4
					c0-0.2-0.1-0.4-0.1-0.4c0.9,0,1.2-0.2,1.6-0.4c0.4-0.2,0.7-0.7,1.3-0.6c0.1,0,0.1,0.3,0.1,0.5c-0.1,0.1-0.4,0.1-0.5,0.2
					C27,19.2,27,19.6,25.7,19.7z M38.9,5.5c0.9,0.2,1.7,0.5,2.4,1c0.1,0.4,0.1,0.8-0.1,1.1c-0.8-0.6-1.6-1.1-2.5-1.5
					C39.1,6,39.1,5.7,38.9,5.5z M35.6,4.8L35.6,4.8c0.5,0.6-0.2,1.3-1.5,1.7c-1.3,0.4-2.5,0.1-3-0.4c-0.5-0.6,0-1.2,1.3-1.6
					C33.7,4.1,35.2,4.2,35.6,4.8z M28.1,8.2C27.9,8.4,28,8.7,27.9,9c0,0.1-0.1,0.3-0.2,0.6c-0.1,0.1-0.2,0.3-0.3,0.4
					c-0.2-0.1-0.4-0.2-0.6-0.4c-0.1-0.1-0.2-0.2-0.2-0.3c0.5-0.5,1.3-1.1,1.8-1.4C28.3,8,28.2,8.2,28.1,8.2z M34.6,16.1
					c0.1-0.2,0.1-0.3,0.3-0.5c0.1-0.2,0.6-0.2,0.7-0.2c0.2,0,0.3,0.1,0.4,0c0.1,0,0.2-0.1,0.3-0.3c0.2-0.1,0.3-0.1,0.5,0
					c0.2,0,0.4,0.1,0.4,0.2c0.1,0.1,0.1,0,0.2,0.2c0.1,0.1,0.1,0.3,0.1,0.4c-1.1,0.3-2.1,0.4-3.1,0.5C34.5,16.3,34.5,16.2,34.6,16.1
					z M37.2,8.6c-0.3,0.1-0.5,0-0.6,0.1s-0.1,0.7-0.7,0.4c-0.3-0.5-0.5-0.3-0.7-0.5c-0.2-0.3,0-0.5,0.1-0.5c0.2-0.1,0.1-0.2,0.1-0.4
					c0-0.2-0.3-0.2-0.2-0.6c0-0.1,0.1-0.4,0.5-0.2C35.9,7,37,7.8,37.3,8.1C37.6,8.4,37.4,8.6,37.2,8.6z M28.7,5.9
					c0.5-0.3,1.3-0.7,1.6-0.7c-0.1,0.2-0.4,0.6-0.5,0.7c-0.8,0.5-2.4,1.7-3.5,3c-0.1-0.5,0-0.9,0-1.1C27.2,6.9,27.9,6.4,28.7,5.9z
					 M26.4,9.8c0.1,0.2,0.4,0.5,0.6,0.6c-0.7,1.2-1.4,2.6-1.8,3.9c-0.4-0.2-0.8-0.7-1-1.2c0.2-0.9,1-2.4,2-3.5
					C26.3,9.6,26.4,9.8,26.4,9.8z M25.5,15.2c0.3,0.2,0.4,0.4,0.6,0.5c-0.3,0-0.5,0-0.8,0.1C25.4,15.6,25.5,15.4,25.5,15.2z
					 M24.9,14.8c-0.2,0.1-0.6,0.2-0.5,0.3c0.2,0,0.5,0,0.7,0c-0.1,0.3-0.2,0.7-0.2,1c-0.3,0.1-0.8,0.3-0.8,0.5
					c0.2,0,0.5-0.2,0.8-0.2c0,0.3-0.1,0.6-0.1,0.9c-0.1,0.1-0.4,0.3-0.5,0.4c0.1,0,0.3-0.1,0.5-0.1c0,0.1,0,0.3,0,0.4
					s-0.1-0.9,0,0.4c-0.1,0.1-0.2,0.3-0.3,0.4c0.1,0,0.2-0.1,0.3-0.1c0,0.4,0.1,0.9,0.2,1.2c-0.2-0.1-0.4-0.2-0.6-0.4
					c-0.2-0.2-0.3-0.4-0.4-0.5c-0.4-1.3-0.2-3.2,0.2-5C24.3,14.1,24.7,14.5,24.9,14.8z M23.6,17.8c0,0-0.8-3.1,0.1-5.7
					c0,0.4,0.1,0.9,0.2,1.2C23.9,13.3,23.4,15.7,23.6,17.8z M25.9,17.7c-0.2,0.1-0.5,0.3-0.8,0.4c0-0.3,0-0.5,0-0.8
					c0.2,0,0.4-0.2,0.6-0.2c0.6-0.2,0.7-0.4,1.2-0.6c0,0-0.2-0.2-1.5,0.3c-0.1,0-0.2,0.1-0.3,0.2c0-0.2,0.1-0.6,0.1-0.8
					c0.4-0.1,0.6-0.4,1-0.5c0.5,0.3,1.2,0.6,1.8,0.8c0,0.4,0,1-0.2,1.1c-0.3,0.1-0.8,0.4-1.2,0.7c-0.4,0.2-0.8,0.6-1.5,0.7
					c0-0.2,0-0.4-0.1-0.6c0.4-0.1,0.8-0.3,1-0.4c0.6-0.3,0.8-0.7,1.5-0.9C27.7,17.1,27.6,16.8,25.9,17.7z M25.8,14.7
					c0.2-0.1,0.9-0.2,0.8-0.3c0,0-0.3,0-0.7,0.1c0.5-1.3,0.8-2.2,1.7-3.3c0.3,0.3,0.2,0.6,0.6,0.8c0.3,0.2,0.2,0.4,0.4,0.6l0.2,0.1
					c-0.2,0.8-0.4,1.8-0.5,3.2C27.2,15.6,26.5,15.2,25.8,14.7z M29.6,13.2c0,0,0.4,0.2,0.2,0.6c-0.2,0.4-0.1,0.6,0,0.8
					s0.2,0.3,0.2,0.5c0.1,0.2,0.3,0.4,0.4,0.5s0.1,0.3,0.1,0.3s0.3,0.3,0.4,0.4c0.1,0,0.1,0.1,0.1,0.1c-0.9-0.1-1.5-0.2-2.2-0.4
					C29,15.3,29.1,14.3,29.6,13.2z M31,15.5c-0.2-0.4-0.1-0.5,0.1-0.6c0.1,0,0.5,0.3,0.6,0.5s0.2,0.3,0.3,0.5
					c0.1,0.2,0.2,0.4,0.3,0.6c-0.2,0-0.6,0-0.8,0c-0.1-0.1,0-0.2-0.1-0.3C31.3,16,31.2,15.9,31,15.5z M36.2,22.1
					c0.6-0.6,0.6-0.8,1.5-1.6c0,0,0.1-0.5-1.7,0.8c-0.2,0.1-0.4,0.2-0.5,0.1c0.5-0.4,0.8-1.1,1.4-1.4c0,0-0.2-0.3-1.8,0.7
					c-0.2,0.1-0.4,0.1-0.5,0c0.4-0.4,0.8-0.9,1.3-1.1c0,0-0.1-0.2-1.6,0.6c-0.1,0.1-0.2,0.1-0.4,0c0.4-0.3,0.8-0.8,1.2-1
					c0,0,0-0.2-1.5,0.3c0-0.2,0-0.2,0-0.3c0.1-0.1,0.3-0.3,0.6-0.4c0,0-0.1-0.2-0.7,0c0,0,0-0.7,0-1c0.1,0.1,0.4,0.3,0.4,0.3
					s0.3,0.1,0.4,0c0.1-0.1,0.6-0.3,0.8-0.2c0.3,0.1,0.7,0.4,0.8,0.4s0.2,0.1,0.3,0.3c0.1,0.2,0,0.3,0,0.4s0.1,0.2,0.5,0.3
					c0.4,0.1,0.5,0.1,0.6,0.2s0.3,0.1,0.4,0c0.1,0,0.2-0.2,0.3-0.2s0.4,0,0.4,0c0.2,0.1,0.1,0.3,0.1,0.6c0,0.4-0.4,0.5-0.6,0.8
					C37.1,21.7,36.4,22.9,36.2,22.1z M38.6,19.1c-0.3,0-0.5,0.1-0.8,0.2s-0.5,0-0.6-0.2s-0.1-0.3,0-0.6c0.1-0.4-0.5-0.3-0.7-0.4
					s0-0.5,0.1-0.7s-0.4-0.3-0.6-0.2c-0.1,0-0.2,0.5-0.5,0.7c-0.3,0.1-0.3,0-0.7-0.2c-0.3-0.2-0.4-0.3-0.4-0.7
					c1.2-0.1,2.1-0.3,3-0.5c0.3,0,0.1,0.2,0.4,0.1c0,0,0.1-0.1,0.2-0.2c0.1,0.2,0.2,0.5,0.2,0.7c-0.1,0-0.3-0.1-0.4-0.1
					c-0.1-0.1-0.8,0.1-0.9,0.2c-0.1,0.1,0.2,0.1,0.3,0.1s0.3,0.2,0.5,0.2c0.1,0,0.2,0.3,0.5,0.3c0.1,0,0.2,0,0.2,0.1
					c0.1,0.4,0.3,0.8,0.4,1.3C38.7,19.1,38.6,19.1,38.6,19.1z M38.2,15.7c0-0.2,0-0.4,0-0.5C38.1,15,39,14.6,39,14.6
					s0.3-0.1,0.6-0.3c0.3-0.1,0.3-0.9,0.1-1.2c-0.1-0.3-0.2-0.7,0-0.9s0.7,0.3,1,0.2c0.2-0.1,0.2-0.3,0.3-0.4c0.4,0.7,0.8,1.3,1.1,2
					c-1,0.7-2.4,1.3-3.7,1.6C38.3,15.7,38.3,15.7,38.2,15.7z M40.3,10.3c0.1,0,0.2,0,0.4,0c0.3,0,0.7,0,0.7-0.3c0.1-0.3-0.1-1-0.1-1
					c-0.1-0.2-0.4-0.3-0.5-0.4l0,0C41,8.4,41.2,8.2,41.3,8c1.4,1,2.5,2.2,3.3,3.5c-0.4,0.9-1.1,1.7-2.1,2.4
					C41.9,12.6,41.1,11.4,40.3,10.3z M41.1,7.9c-0.1,0.2-0.3,0.4-0.5,0.6c-0.1-0.1-0.3-0.1-0.6-0.1c-0.4,0.1-0.5-0.3-0.5-0.3
					s0.5-0.4,0.3-0.6c-0.3-0.2-1.6-0.2-1.6-0.2c-0.5-0.1-0.4,0.2-0.5,0.4c-0.3-0.3-0.7-0.6-1.1-0.8l0,0c0-0.5,0.6-0.2,0.6-0.4
					c0-0.2-0.6-0.5-0.4-0.5C38.5,6.3,39.9,7,41.1,7.9z M36,4.1c-0.1,0-0.6-0.2-0.7-0.2c0.1-0.1,0.2-0.1,0.2-0.1
					c0.8,0,1.6,0.2,2.4,0.4C37.4,4.1,36.6,4.1,36,4.1z M26.2,8c-0.1,0.2-0.2,0.8-0.1,1.2c-0.9,1.1-1.7,2.6-2,3.7
					c-0.1-0.2-0.2-0.7-0.3-1C24.3,10.4,25.3,9,26.2,8z M27.6,19.4c0.3-0.1,0.5-0.1,0.5-0.2c0.1,0,0.1,0.1,0.1,0.5
					c-0.5,0.2-1.6,0.2-2.2,0.1C26.9,19.8,27.2,19.6,27.6,19.4z M36.8,23.3c-0.1-0.1-0.2-0.2-0.2-0.4c1.6-0.4,3.3-2.2,2.3-1
					c-0.2,0.4-0.5,0.8-1.4,1.1L36.8,23.3z M39.2,22.6c0.9-0.7,0.8-0.5,0.2,0.1c-0.3,0.2-0.5,0.9-2.1,1.5c-0.1-0.1-0.2-0.2-0.2-0.4
					C37.1,23.8,38.4,23.2,39.2,22.6z M40.3,23.3c-0.7,0.6-0.5,0.8-1.8,1.4c-0.4,0.2-0.9,0.3-0.9,0.4c-0.1-0.1-0.2-0.3-0.2-0.4
					C39.4,24,40.6,22.7,40.3,23.3z M40.2,24.4c0.7-0.4-0.2,0.2-0.3,0.5c-0.6,0.5-0.9,0.6-1.7,0.9c-0.1-0.1-0.2-0.2-0.2-0.4
					C38.7,25.3,40,24.4,40.2,24.4z M43.9,21.4c0.3-0.7,0.5-1.1,0.4-1.4c0-0.2,0.2-0.2-0.1-0.5s-1.5,1.1-1.9,0.9
					c-0.2-0.1-0.4,0.1-0.7,0c-0.2,0-0.2-0.1-0.3-0.2c1.8-0.9,3.2-2,4-3.1c-0.9,1.2-2.4,2.1-4.4,2.9c-0.2,0-0.2,0.1-0.4-0.1
					s-0.7-0.3-1-0.2c-0.2,0-0.5,0-0.5,0s-0.1-0.2-0.3-0.4c-0.1-0.5-0.1-0.8-0.2-1.4c0.1,0,0.3,0,0.3,0c0.3,0,0.3,0.2,0.4,0.2
					c0.2,0,0.4-0.1,0.5-0.3c0-0.1-0.2-0.3-0.4-0.4s-0.3-0.2-0.4-0.3c-0.1-0.1-0.4,0-0.5,0.1c-0.1-0.3-0.1-0.6-0.2-0.9h0.1
					c1.6-0.5,2.7-1.2,3.7-2c0.6,1.2,1.2,2.3,1.4,3.6c-0.2-1.3-0.6-2.5-1.1-3.8c1-0.8,1.7-1.6,2.1-2.5c0.6,0.9,1,1.9,1.2,2.9
					c-0.3-1-0.7-2-1.2-3c0-0.1,0.1-0.2,0.1-0.4c0,0.1-0.1,0.2-0.1,0.3c-0.8-1.4-1.9-2.7-3.2-3.7c0.2-0.4,0.1-0.8,0-1.2
					c1.3,0.8,2.4,1.9,3.4,3.3V9.7c-1.3-2.2-3.2-3.9-6.1-4.7l-0.4-0.2L37,4.7c0-0.2-0.3-0.3-0.4-0.4c0.7-0.1,1.4-0.1,2,0.1
					c4.5,1.6,7.7,5.9,7.7,10.9c0,2.3-1,5.2-2.6,7.3C43.8,22.2,43.8,21.6,43.9,21.4z M26.9,34.1c1.2-0.2,2.6-1,3.6-2l-0.1,0.1
					C29.9,34.2,27.6,34.4,26.9,34.1z M28.3,34.5c0.9,0,1.9-0.3,2.8-1.6C30.4,35.2,28.7,34.7,28.3,34.5z M34.4,34.3
					C34,34,34,33.1,34.3,32.8c0-0.3,0.2-0.4,0.1,0.2c-0.1,1.2,0.8,1.2,1.1,1.4C35.8,34.6,34.9,34.6,34.4,34.3z M36.3,33.6
					c-0.1-0.1,0-0.3,0.3-0.6c1.4-1.2-0.2-1.1,0.6-1.6c-0.1,0.4,2.2,0.5-0.4,1.8C36.6,33.3,36.4,33.4,36.3,33.6z M38.6,34.1
					C38.5,34.2,38.5,34.1,38.6,34.1c-0.1-0.2-0.3-0.1-0.3-0.1c0.2,0.2,0.1,0.5,0,0.3c0-0.1-0.1-0.1-0.2,0c0.1,0.2,0.1,0.3,0,0.5
					c-0.1,0.1-0.4,0.2-0.4,0.1c0-0.1,0.1,0,0.2-0.1c0.1-0.1,0.1-0.3-0.1-0.4c-0.2-0.1-0.5-0.1-0.4,0.2c0.1,0.1,0.2,0.2,0,0.2
					c-0.1,0-0.2,0-0.3,0c-0.2,0-0.3-0.1-0.3-0.3s0.1,0.1,0.2,0c0.2,0,0.3-0.5,0.8-0.4c0.1,0,0.1,0,0.2-0.1c0-0.1,0-0.1,0.1-0.1
					c0,0,0.1,0,0.2,0c0.1,0,0.1,0,0.1-0.1c0.1,0,0.1,0,0.2,0C38.6,33.8,38.6,34.1,38.6,34.1z M38.8,33.2c0.2,0,0.3,0.3,0.2,0.4
					c-0.1,0.1-0.1-0.1-0.1-0.2c0-0.1-0.1-0.1-0.3-0.1c-0.1,0-0.1-0.1-0.1-0.1C38.6,33.2,38.7,33.2,38.8,33.2z M46.5,27.2
					c0,0,0.1,0.5,0.8,0.6c0.6,0.1,1.5,0.4,1.5,1c0,0.3,1.7,0.3,1.3,1.4c0,0-0.8,0-1.9-0.2c-0.1,0.1,0.5,0.1,0.3,0.3
					c-0.4,0.2-2.5,0.3-2-0.2c0.1-0.1,0.6-0.2,0.6-0.2s-0.4,0-0.8,0.1c-0.3,0.1-0.6,0.1-0.7,0c-0.2-0.1-0.4-0.3,0.2-0.5
					c0.6-0.1,0.2-0.1-0.3-0.1c0,0-1,0-1-0.2c0-0.3,0.5-0.2,1.1-0.4c0.6-0.2,0-0.1-0.4-0.1c0,0-0.9,0-1-0.2c-0.2-0.2,0.4-0.3,0.2-0.4
					c-0.3,0.2-1.1,0.1-0.9,0.5c0.1,0.1,0.6,0.3,0.8,0.3c-0.7,0.2-0.5,0.6-0.2,0.8c0.1,0.1,0.2,0.1,0.4,0.2c-0.6,0.3-1.2,0.4-1.3,0.3
					c-0.1-0.2,0.3-0.2,0.2-0.4C40.8,30,43,29.2,43,29.2c0-0.2-2,0.4-1.8-0.1c0.3-0.2,0.7-0.2,1.1-0.3c-0.1-0.2-1.5,0.1-1.7-0.1
					s0.5-0.2,0.6-0.3c-0.1-0.2-1.7-0.3-2-0.2c-0.1-0.2-0.9-0.6-1.2-0.6c-0.1-0.5-0.7-0.7-0.9-0.8c-0.1-0.3-0.3-0.5-0.5-0.7
					c-0.2-0.1-0.3-0.2-0.5-0.3c0-0.1-0.3-0.6-0.4-0.8c-0.2-0.2-0.3-0.3-0.5-0.4c0-0.2-0.1-0.4-0.3-0.6c-0.1-0.2-0.3-0.3-0.4-0.4
					c0,0-0.1-0.4-0.2-0.6c-0.9-1.7-4.6-1.5-9.2-1.4c-2.9,0.1-6.2,0.1-9.5-0.4c1.7,1.6,9.9,1.2,13.6,1.7c-0.8,0.4-2,0.2-3.6,0.3
					c-0.3,0.3,2.5,0.8,5,1c-0.8,0.1-1.9,0.2-2.8,0.5c-0.6,0.2,3.1,0.7,4.7,0.7c-1.5,0.3-3.3,0.3-3,0.6c0.7,0.3,2.8,0.3,4.1,0.3
					c-1.6,0.6-3.1,0.2-3,0.5c0.3,0.1,0.9,0.3,1.7,0.3c0.7,0,1.8,0,2.2,0.1c0.1,0.1-0.7,0.1-1.2,0.2c-1.4,0.3-1.9,0-1.6,0.3
					c0.3,0.2,1.4,0.2,1.8,0.2c0.9,0,1.8,0,2,0.3c-0.5,0-0.9-0.1-1.4,0c-1.2,0.1-1.8-0.1-1.5,0.2c0.5,0.2,1.4,0.2,1.8,0.3
					c1.3,0.1,1.6,0.3,1.9,0.5H36c-0.9-0.1-1.9-0.1-2.8-0.1c-0.2,0.3,1,0.2,1.1,0.6c-1,0.3-2,0.4-3.1,0.4c-0.2,0-0.6-0.1-0.6,0
					c0.1,0.1,0.4,0.2,0.6,0.2c0.8,0.2,1.3,0.1,1.8,0.1c0.3,0.4-3.8,0.2-3.4,0.6c0.7-0.2,1.5,0.1,2,0.1c-0.1,0.1,0.3,0.2-1.1,0.4
					c-1.2,0.4-3,2.7-5.2,2.2c-0.5-0.2-0.6-0.4-0.6-0.4c1.7,0.5,4.8-1.8,4.8-1.8c-0.8-0.4-4,1.9-5.4,1.5c-0.3-0.2-0.3-0.2-0.3-0.3
					c1.9-0.3,4.6-1.9,4.6-1.9c-2.4,0.3-4.1,1.4-5.5,1.4c-0.3,0-0.3,0-0.4-0.2c0,0,3.4-1.7,7.8-2.1c-0.6-0.1-1.4-0.7-1.4-1.2
					c-0.8-0.2-1.4-0.6-1.5-1.1c-1.2,0-1.7-0.4-2.4-1.4c-2.4,0-2.8-1.3-2.8-1.3c-4.4,0-4.7-2.1-4.7-2.1c-2.9-0.1-4.2-2.3-4.2-2.3
					c3.6,1.3,17.1-0.4,20.1,1c2.7,1.2,3.1,6.9,7.4,6.1c-0.5-0.1-0.9-0.3-1.4-0.5c0.3-0.1,1-0.4,1.4-0.7c1.9-1.3,3-2.9,4.9-5.1
					c1.5-2,9.3-0.5,11.4-1c-0.1,0.7-1,1.3-2.9,1.6c-0.8,0.1-0.2,0.9-1.7,1.3c-1,0.2-1.1,1.1-3.8,1.2c-0.4,0-0.9,1-3.1,1.4
					c-0.2,0-0.4,0.1-0.6,0.1c-0.5-0.1-0.7-0.2-0.8-0.4c0.6,0,1.1,0.1,1.2-0.1c-0.2,0-0.8-0.1-0.7-0.3c0.9,0,1.9,0,1.7-0.2
					c-0.6,0-0.8-0.2-1-0.4c0.8,0.1,1.9,0,2.2-0.2c0.1-0.1-1.2,0.1-1.8-0.4l0,0c0.7,0,4.9,0,4.6-0.5c-0.9,0.2-3-0.1-4.1-0.2
					c0.5-0.1,1.1-0.2,1.7-0.2c1.9-0.1,4.8-0.1,4.6-0.8c-1.8,0.4-4,0.1-5.2,0.1l0.1-0.1c0.5-0.4,3.2-0.4,4-0.5
					c0.6-0.1,4.1-0.2,4.2-0.7c-0.4,0.2-2.4,0.1-4.2,0.1c-1.8-0.1-3.9-0.1-4.8,0.7c-0.2,0.2-0.6,0.5-0.9,0.8
					c-0.2,0.2-0.7,0.9-0.9,1.1c-0.3,0.5-1.9,2.3-3.1,3c-0.3,0.2-0.7,0.1-0.7,0.3l0,0c0.1,0,0.1,0,0.2,0c1.4,0.2,2.8,0.5,3.6,1
					c-0.1-0.2-0.1-0.4,0.2-0.5c0,0.1,0.5,0.7,1,0.7C46.1,27.3,46.5,27.2,46.5,27.2z"/>
				<path class="st1" d="M29.6,28.4c0.3,0.4,1.1,0.7,2.6,0.3c0.6,0.1-0.4-0.5-0.7-0.5C30.1,28.7,29.4,28.1,29.6,28.4z"/>
				<path class="st1" d="M46.6,28.7c0.5,0.2,0.7,1.2,1.6,0.5C48.7,28.7,45.3,28.3,46.6,28.7z"/>
				<path class="st1" d="M32.3,29.1c-0.9,0.3-1.8,0-1.6,0.2c0.2,0.4,1.4,0.5,2.4,0.3c0.5,0,0-0.2-0.1-0.2
					C32.5,29.3,32.5,29,32.3,29.1z"/>
				<path class="st1" d="M24.3,24.9c-0.4,0-1.1-0.3-0.9-0.1c0.4,0.6,1.2,1.2,5.5,0.9c0-0.1-0.3-0.1-0.7-0.3
					c-1.5-0.1-0.6-0.4-1.6-0.4C25.9,24.9,25.4,25,24.3,24.9z"/>
				<path class="st1" d="M26.8,26.2c-0.6,0-0.8-0.2-0.8-0.1c0.4,1,3.3,1,4.3,0.7c0-0.1-0.3-0.2-0.5-0.2c-1.2-0.2-0.5-0.3-1.1-0.4
					C28,26.2,27.3,26.3,26.8,26.2z"/>
			</g>
		</g>
	</g>
</g>
</svg>
