<svg xmlns="http://www.w3.org/2000/svg" width="100" height="81" fill="none"><path fill="#fff" d="M7.1 67.6H.9V67h.9v-6.5H.9v-.6H7v2h-.8v-1.1H3.9v2.5h1v-.8h.7v2.2h-.7v-.8h-1v2.9h2.4v-1.3h.8v2.1ZM14 67.6H7.9V67h.8v-6.5h-.8v-.6h4v.6h-1v6.3h2.3v-1.3h.8v2.1ZM24.5 60.5h-.6v4.4c0 2.1-1.3 2.9-3.3 2.9-2.1 0-3.3-.9-3.3-2.6v-4.7h-.6v-.6h3.7v.6h-.9v4.4c0 1.7.6 2 1.9 2 1.3 0 1.8-.6 1.8-2v-4.4h-.9v-.6h2.4l-.2.6ZM27.3 67h1v.6h-2.8V67h.9v-6.1l-.3-.3h-.9V60h3l3.7 5.2v-4.5h-1.2v-.6h2.9v.6h-.8v7.2h-1.3L27.3 62v5ZM38.5 67.6h-4V67h.9v-6.5h-.9v-.6h4v.6h-1V67h1v.6ZM44 67.8h-1.2l-2.9-7.3h-.7v-.6h4v.6h-1.1l2 5.2 1.9-5.2h-.8v-.6h2.3v.6h-.7L44 67.8ZM54.4 67.6h-6.1V67h.7v-6.5h-.7v-.6h6.1v2h-.8v-1.1h-2.5v2.5h1.1v-.8h.7v2.2h-.7v-.8h-1.1v2.9h2.6v-1.3h.7v2.1ZM59.5 64c2-.2 2.4-1 2.4-1.9 0-1.4-.9-2.1-2.8-2.1h-3.9v.6h1V67h-1v.6h3.9V67h-.8v-2.4h.3l1.8 3.1H63v-.6h-.6l-1-1.8c-.7-.9-.8-1.1-1.9-1.3Zm-1.2-3.3c1.3 0 1.5.5 1.5 1.5s-.2 1.7-1.4 1.7h-.1v-3.2ZM64.5 67.7h-.8v-2.2h.8v1.3c.6.2 1 .2 1.8.2.9 0 1.3-.3 1.3-.9 0-.6-.5-.8-1.6-1.3-1.7-.8-2.3-1.4-2.3-2.8s1-2.1 2.6-2.1c.5 0 1.5.2 1.9.5v-.5h.7V62h-.7v-1.2c-.5-.1-.9-.2-1.4-.2-.8 0-1.2.3-1.2.8 0 .6.5.9 1.4 1.4 1.3.6 2.3 1.2 2.3 2.7 0 1.5-1.2 2.2-2.7 2.2-.6 0-1.7-.2-2.1-.5v.5ZM71.9 65.5h2.8l.6 1.6h-.9v.6H78v-.6h-.6l-2.9-7.3h-1.2l-2.9 7.3h-.7v.6h2.4v-.6h-.8l.6-1.6Zm2.5-.7h-2.2l1.2-3 1 3ZM84.7 67.6h-5.9V67h.7v-6.5h-.7v-.6h3.5v.6h-.7v6.3h2.3v-1.3h.8v2.1ZM60 42.1c-1.9-.6 3.5 0 2.6.7-1.5 1.3-1.7-.4-2.6-.7Zm-22 1.1c-.7-.1-.8-.6-1-.5-1.4.6-2.9.1-2.6.3.4.6 2.3.8 3.9.5.8 0 0-.3-.3-.3Zm-1.1-1c-2.6.6-3.7.2-4.3-.5-.2-.5.9.5 3.1-.3.5 0 2.2.9 1.2.8Zm-6.4-2.1c.6.9 3.6 1 4.6.6.9.1.3-.5-.2-.6-.5.1-1-.5-1.1-.4-2.3.8-3.4 0-3.3.4Zm.7-2c1 .2-.2.3 1.9.6.3.1.8.2.8.4-1.7.4-6.3.6-7-1.1-.1-.2.3.1 1.3.2.8 0 1.9-.1 3-.1ZM24 36c-.6-.1-1.8-.5-1.5-.1.6.9 2 1.9 8.9 1.4 0-.1-.6-.2-1.1-.5-2.3-.2-.9-.6-2.7-.6-.9-.1-1.8.1-3.6-.2Zm21.2 16.7c-.2.3.6.8 1.4.5.8-.3.8-.6.9-.8.3-.2.3-.6.2-.7.5-.2.3-.6.3-.6.5.1.9-.6.9-1-.1-.9-.6-1-1.6-1 .9-.7 2.1-.8 4.1-1 1.7-.2 2.7-.6 3.5-1 1-.3 1.9-.3 2.8-.5.6-.1 1-.1 1.4-.2.2.2.9.5 3 .2s4.7-.3 4.7-.3c1.3-3.4-1.7-4.1-1.7-4.1-.5-.9-.8-1.8-2.1-2-1.4-.3-1.8-.3-1.9-.9-.5-.1-.7-.1-1 .1.3-.2.6-.4 1-.5 2.9-.7 3.5-1.6 3.9-2 3.8-.2 4.6-1.2 6.1-2.1 1.8-.3 2.8-.8 3.8-2.2 5.3-.2 5.9-5.7 4.3-5.6-3.8.6-14-1.4-18.4.6.6-1.9 1-3.9 1-6.4C61.8 9.9 52.7.7 41.6.7S21.3 9.6 21.3 20.8c0 2.3.4 4.5 1.1 6.7-15.8 1.2-17.5-1.6-17.7-.2.2 3.5 5.4 6.9 7.6 6.5 0 0 2.9 3.5 7.9 3.8 0 0 1.9 2 4.6 2.1.6.9 2.2 2.3 4 1.9 0 0 .5.9 1.7 1.2 0 0-.1.5.5.6-1 0-8.4 1.3-11.6 3.9.3 1.3 3 2.1 3.7 2 .6 1.3 2.2 2.5 3.7 2.5 1.5 1.5 3.3 1.7 4.5 1.6 1.3.6 4.5-.6 5-2.9.2-.9.9-2.4 2.2-2.6 0 0 .6.1 1 .6-.7.6-.9 2.8.3 3.5 1.2.7 2.5.6 3.7.5.7.6 1.3-.1 1.7.2Zm14.6-32.1c0 3.8-1.7 8.3-4.2 11.8.1-.6.1-1.6.2-1.9.5-1.1.7-1.8.6-2.3-.1-.3.3-.5-.2-.8-.6-.5-2.4 1.8-3.1 1.4-.4-.2-.6.1-1.1 0-.3-.1-.3-.2-.5-.3 3.2-1.6 5.5-3.5 6.8-5.6-1.5 2.1-4 3.8-7.4 5.2-.3-.1-.3.1-.6-.2-.3-.3-1.1-.6-1.7-.5-.2.1-.6 0-.6 0s-.2-.4-.5-.6c-.1-.8-.2-1.3-.3-2.3.2-.1.5-.1.5-.1.5.1.5.3.6.3.2 0 .6-.2.7-.5.1-.2-.3-.5-.6-.6-.3-.2-.5-.3-.6-.5-.2-.1-.6.1-.8.1-.1-.5-.2-.9-.3-1.4.1 0 .2-.1.2-.1 2.6-.8 4.4-2 6-3.2.9 1.9 1.9 3.8 2.3 5.7-.3-2-.9-4.1-1.8-6 1.7-1.2 2.8-2.6 3.4-4 .9 1.5 1.6 3.1 1.9 4.6-.5-1.7-1-3.3-1.9-4.8.1-.2.2-.4.2-.6-.1.2-.2.3-.2.6-1.3-2.3-3.1-4.3-5.2-6 .3-.6.2-1.3 0-1.9 2.1 1.3 3.9 3.1 5.6 5.4l-.2-.2c-2-3.5-5.1-6.3-9.8-7.5l-.6-.3-2-.4c-.1-.3-.6-.6-.6-.6 1.1-.1 2.2-.1 3.3.2 7.2 2.8 12.5 9.8 12.5 17.9ZM44.3 33.4c-.2-.2-.3-.4-.3-.6 2.6-.6 5.3-3.5 3.7-1.7-.4.6-.8 1.2-2.1 1.8l-1.3.5Zm1.4-4.5s.2-.8-2.8 1.3c-.3.2-.6.3-.7.1.8-.6 1.2-1.8 2.2-2.2 0 0-.3-.5-2.9 1.1-.3.2-.6.2-.8 0 .7-.6 1.3-1.4 2-1.7 0 0-.1-.4-2.6.9-.2.1-.3.2-.6 0 .6-.6 1.2-1.3 1.9-1.6 0 0 0-.4-2.4.6v-.5c.2-.1.5-.5 1-.6 0 0-.2-.3-1-.1 0 0 0-1 .1-1.6l.6.6s.5.2.6.1c.2-.1.9-.5 1.3-.3.5.2 1.2.6 1.3.7.2.1.4.1.6.5.1.3-.1.5-.1.6.1.2.2.3.8.5.6.3.7.2.9.4.2.2.5.1.6.1.1 0 .3-.3.5-.3h.6c.5.1.2.6.2.9 0 .6-.6.8-1 1.3-1.3 1-2.3 3-2.7 1.7.9-1 1-1.2 2.4-2.5Zm-.6-20.1c.5.5.2.6-.2.8-.5.1-.8 0-1 .2-.2.2-.2 1-1.1.6-.6-.6-.8-.4-1.1-.7-.4-.5-.1-.8.2-.9.2-.1.1-.4.1-.7-.1-.3-.5-.4-.3-.9.1-.2.2-.6.7-.3.5.2 2.3 1.6 2.7 1.9Zm-.6-3.6c2.6.7 4.8 1.9 6.8 3.2-.2.3-.5.6-.8.9-.2-.2-.5-.2-.9-.2-.6.2-.7-.4-.7-.4s.9-.6.5-1c-.5-.4-2.6-.4-2.6-.4-.7-.2-.6.4-.8.6-.6-.5-1.1-.9-1.7-1.3h.1c0-.8.9-.3 1-.6-.1-.3-1.2-.7-.9-.8Zm3.2-.5c1.4.3 2.8.8 3.9 1.6.2.6.1 1.2-.2 1.9-1.2-.9-2.6-1.8-4-2.4.6-.4.6-.8.3-1.1Zm-1.1 15.5c-.1-.4 1.3-1 1.3-1s.6-.2 1-.5c.5-.2.5-1.5.2-1.9-.2-.5-.4-1-.1-1.4.3-.3 1.1.6 1.6.4.3-.1.3-.5.5-.6.6 1 1.3 2.1 1.8 3.3-1.7 1.1-3.9 2.1-6 2.7-.1 0-.2.1-.2.1 0-.4 0-.8-.1-1.1Zm3.4-7.7c.2 0 .4.1.6.1.5.1 1-.1 1.2-.6.1-.5-.1-1.6-.1-1.6-.1-.4-.7-.4-.9-.6l-.1-.1c.3-.3.6-.6.8-1 2.3 1.7 4 3.5 5.3 5.7-.6 1.4-1.9 2.8-3.4 3.9-1-2.1-2.1-4.1-3.4-5.8Zm-7.7 8.2c.3 0 .5.1.6.1.2-.1.3-.2.6-.5.3-.2.6-.1.8-.1.3.1.6.2.6.3.2.1.2.1.5.3.1.2.1.5.1.6-1.9.5-3.3.6-5.1.8.1-.2.2-.3.3-.5.1-.3.2-.6.5-.8.2-.2.8-.3 1.1-.2Zm3.1 1.7c.5-.1.2.3.6.1.1 0 .3-.2.4-.3.1.3.3.8.4 1.1-.2-.1-.5-.1-.6-.2-.2-.1-1.3.2-1.4.3-.2.2.3.2.5.2.2.1.6.3.7.3.2.1.4.6.7.5.1 0 .3 0 .4.2.3.6.5 1.3.6 2-.1-.1-.2-.1-.3-.2-.6-.1-.8.1-1.3.3-.5.2-.8 0-1-.3-.2-.3-.1-.5 0-1s-.7-.5-1.1-.6c-.4-.2.1-.7.2-1.1.1-.4-.6-.5-.9-.4-.2.1-.3.8-.8 1-.5.2-.6.1-1-.3-.5-.3-.6-.6-.6-1 1.5 0 2.9-.3 4.5-.6Zm3.1 10.1c-.6.4-.8 1.4-3.3 2.3-.2-.2-.3-.3-.3-.6 0-.1 2.1-.9 3.4-1.9 1.4-1 1.3-.7.2.2Zm-3.1 3c3.2-.8 5-3 4.6-2.1-1.2.9-.7 1.2-3 2.2-.6.3-1.4.6-1.4.6-.1-.2-.2-.6-.2-.7Zm4.3-.3c1-.6-.3.3-.6.8-.9.7-1.6 1-2.7 1.4-.1-.2-.3-.3-.4-.6 1.4-.1 3.4-1.5 3.7-1.6Zm-.3 1.5c1.6-.9 0 .2-.5.8 0 0-.3.5-1.7.8l-.5-.5c.9 0 2.2-.6 2.7-1.1ZM42.1 1.9c1.3.1 2.7.3 3.9.6-.7-.1-2-.2-3 0-.2-.1-.9-.4-1.2-.5.2 0 .3 0 .3-.1ZM37.3 3c2.1-.6 4.4-.5 5.2.5.7.9-.3 2.1-2.4 2.8-2.1.7-4.1.1-4.8-.7-1-.9-.1-2 2-2.6Zm-5.5 23.3c.6-.2 1.7-1.3 2.4-1.5 0 0 .6-.6-2.8.7-.1-.3 0-.3 0-.8.1-.1.6-.4 1.1-.5.1-.5-.8-.2-1-.3-.2-.2-.1-.6 0-1.1 1.4.4 2.5.6 4.1.6.2.2 1.6.9 1 .2v-.1c.3 0 .5 0 .8.1.1.4.2.6.2.6l.2.2V27c-.3.2-.9.6-1.4.8-.5.2-.8.2-1.1.2.8-.6 1.2-1.2 2.3-1.8 0 0-.6-.6-3 1.3-.6.5-1.3.5-1.8.6V28c1-.5 2.3-2 3.4-2.4 0 0-.6-.5-4.4 1.9-.2-.2-.4-1 0-1.2Zm3.4-6.4c.2 0 .8.6.9.8.2.3.3.5.5.8.1.3.4.6.6.9-.4 0-.9-.1-1.2-.1-.1-.2-.1-.3-.2-.5-.2-.3-.5-.5-.7-1.1-.4-.6-.2-.7.1-.8ZM34.1 21c.2.2.1.6.1.6l.6.6c.1.1.2.1.2.2-1.4-.1-2.4-.3-3.6-.6.2-1.1.4-2.9 1.1-4.5 0 .1.6.3.5.9-.3.6-.2 1 .1 1.3.2.3.3.6.4.8.1.2.6.5.6.7ZM27.5 8.4c1.2-1.5 2.4-2.1 3.8-3.1.8-.5 2.1-1.1 2.7-1.2-.2.3-.6.9-.7 1.2-1.4.7-3.9 2.8-5.7 4.8-.4-.7-.3-1.4-.1-1.7Zm-2 18.5c1.4-.1 1.9-.3 2.6-.6.6-.3 1.1-1 2.1-1 .1 0 .1.5.2.7-.2.1-.6.2-.8.3-1 .6-1 1.3-3.2 1.3h-.6c-.2-.3-.3-.7-.3-.7Zm1.2-2.5c-.4.2-.7.5-1.2.6 0-.6 0-.8.1-1.2.3-.1.7-.3.9-.4 1-.4 1.1-.7 1.9-.9 0 0-.3-.4-2.4.5-.1.1-.4.2-.5.3 0-.4.1-.9.2-1.2.6-.2.9-.6 1.6-.8.9.5 2 1 3 1.3.1.6.1 1.7-.4 1.8-.6.2-1.3.6-1.9 1.1-.6.4-1.3.9-2.4 1.2-.1-.4-.1-.6-.1-1 .6-.2 1.2-.5 1.7-.6 1-.5 1.3-1.2 2.4-1.5-.1-.2-.2-.7-2.9.8Zm-.8-3c.1-.3.2-.6.3-1 .5.3.6.6 1 .8-.5 0-.8.1-1.3.2Zm3.6 5.8c.5-.2.7-.2.8-.3.1 0 .1.2.2.7-.7.3-2.6.3-3.5.1 1.2.1 1.8-.2 2.5-.5Zm.8-5.8c-1.6-.5-2.8-1-3.8-1.8.4-.2 1.4-.4 1.2-.6 0 0-.6 0-1.1.1.7-2.1 1.3-3.6 2.7-5.4.6.6.3 1 .9 1.3.5.3.3.6.6 1l.3.2c-.2 1.3-.5 3-.8 5.2Zm-.7-10.2c-.2.3-.3.5-.6.7l-.9-.6c-.2-.2-.3-.3-.4-.5.8-.8 2.1-1.8 3-2.3-.2.3-.3.6-.5.6-.4.3-.3.8-.4 1.2.1.2 0 .5-.2.9Zm-2.1.4c.2.3.6.7 1 1-1.2 1.9-2.3 4.2-2.9 6.4-.6-.4-1.3-1.2-1.6-2 .3-1.4 1.7-3.9 3.2-5.7.1 0 .3.3.3.3ZM25 22.2c-.1.6-.1.9-.1 1.4-.2.1-.6.5-.7.6.2-.1.6-.2.7-.2v.6c0 .2-.1-1.5 0 .6-.2.2-.4.5-.5.6.1-.1.4-.1.5-.2 0 .6.2 1.4.3 1.9-.3-.1-.6-.4-1-.6-.3-.3-.5-.6-.6-.8-.6-2.1-.3-5.2.3-8.2.3.6.9 1.5 1.3 1.9-.3.1-1 .4-.8.5.3-.1.8-.1 1.2-.1-.1.6-.3 1.1-.4 1.6-.5.2-1.2.5-1.4.8.2-.1.8-.3 1.2-.4Zm2.2-13.5c-.2.4-.4 1.3-.2 2-1.4 1.8-2.7 4.2-3.2 6-.2-.3-.5-1.1-.5-1.6.8-2.5 2.4-4.9 3.9-6.4Zm-4 6.6c0 .6.1 1.5.3 1.9 0 0-.8 3.9-.5 7.1-.1.2-1.3-4.9.2-9Zm5.2 35.5c1.9-.3 4.2-1.7 5.9-3.2-.1.1-.1.2-.1.2-1.1 3.2-4.8 3.6-5.8 3Zm2.1.8c1.4.1 3.1-.5 4.4-2.7-.9 3.7-3.7 2.9-4.4 2.7Zm9.9-.4c-.7-.5-.7-1.9-.2-2.4.1-.5.3-.6.2.4-.2 1.9 1.3 1.9 1.8 2.2.6.2-1 .3-1.8-.2Zm4.1.7c-.3-.1-.5-.2-.6-.5 0-.3.2.1.4.1.4 0 .5-.8 1.3-.6.1 0 .3-.1.3-.1.1-.1 0-.2.2-.2.1 0 .2-.1.3 0 .2 0 .2-.1.2-.2.1-.1.2-.1.3 0 .3.2.4.6.3.6-.2.1-.2-.1-.2-.1-.1-.2-.3-.1-.3 0 .3.3.2.8 0 .5-.1-.2-.2-.2-.4-.1.2.3.2.6-.1.8-.2.2-.6.3-.6.2-.1-.2.2-.1.3-.2.1-.2.1-.5-.2-.6-.3-.1-.8-.1-.6.3.1.2.3.3-.1.3-.1-.2-.3-.2-.5-.2Zm3.1-2.1c-.1-.1-.2-.2-.5-.2-.1-.1-.2-.2-.1-.2.2.1.3.1.5.1.4 0 .6.5.3.6-.2.3-.1 0-.2-.3Zm-2.7-3.3c-.2.6 3.5.8-.6 2.9-.3.2-.6.5-.8.7-.1-.2-.1-.5.5-.9 2.3-2.1-.2-1.8.9-2.7ZM60.8 44s-.6-.1-1.3.1c-.6.2-.9.1-1.1 0-.4-.2-.6-.6.4-.7 1-.2.5-.2-.5-.2 0 0-1.7 0-1.6-.3.1-.5.7-.4 1.9-.6.9-.3-.1-.1-.6-.2 0 0-1.4 0-1.7-.3-.3-.3.6-.5.4-.6-.5.3-1.8.2-1.5.7.1.2.9.5 1.3.5-1.2.3-.9.9-.3 1.3.2.2.4.3.6.3-.9.6-1.9.6-2 .5-.2-.3.6-.4.5-.6-4.3.6-.6-.7-.6-.7-.1-.4-3.2.6-3-.2.5-.3 1.2-.3 1.8-.6-.2-.4-2.4.2-2.8-.2-.4-.3.6-.3.8-.4-.1-.3-2.7-.5-3.3-.3-.2-.3-1.5-1-1.9-1-.2-.8-1.1-1.2-1.6-1.3-.1-.5-.6-.8-.8-1.1-.3-.2-.5-.3-.7-.5 0-.2-.5-.9-.6-1.3-.3-.4-.6-.5-.8-.6-.1-.4-.2-.6-.5-1-.2-.3-.5-.5-.6-.6.1 0-.2-.6-.4-.9-1.5-2.7-7.4-2.4-14.8-2.2-5 0-10.4 0-15.6-.8 2.8 2.6 15.9 1.9 22 2.7-1.3.6-3.3.3-5.7.6-.5.5 4 1.3 8.2 1.6-1.3.2-3.1.4-4.5.8-.9.3 5.1 1 7.5 1.1-2.4.6-5.3.6-4.8 1 1.2.6 4.5.5 6.7.5-2.7 1-4.9.3-4.8.7.5.1 1.5.5 2.8.5 1.2.1 3-.1 3.6.2.2.2-1 .2-2 .4-2.3.5-3.2 0-2.6.5.5.3 2.3.3 3 .3 1.4 0 3 .1 3.2.5-.7.1-1.4-.2-2.1.1-1.9.2-2.9-.1-2.4.3.8.4 2.3.4 3 .5 2.1.2 2.6.5 3 .7h-1c-1.6-.2-3.2-.1-4.5-.3-.3.5 1.6.5 1.8.9-1.6.5-3.2.6-4.9.6-.3 0-.9-.2-.9-.1.1.2.6.3 1 .3 1.3.3 2 .1 2.9.2.5.6-6.1.4-5.5 1 1.1-.3 2.4.2 3.3.1-.2.1.5.3-1.8.6-1.9.6-4.8 4.3-8.4 3.5-.8-.3-.9-.6-.9-.6 2.7.7 7.8-3 7.8-3-1.2-.6-6.4 3.1-8.6 2.3-.5-.4-.5-.3-.5-.5 3.1-.6 7.4-3.1 7.4-3.1-3.8.5-6.7 2.3-8.9 2.1-.5-.1-.6 0-.6-.4 0 0 5.6-2.8 12.6-3.4-.9-.2-2.2-1.1-2.3-1.9-1.2-.3-2.3-1-2.3-1.7-2 .1-2.8-.6-3.9-2.3-3.8 0-4.5-2.1-4.5-2.1-7 0-7.7-3.4-7.7-3.4-4.8-.2-6.8-3.7-6.8-3.7 5.8 2 27.5-.6 32.5 1.6 4.4 1.9 5 11.1 12.1 9.9-.7-.2-1.5-.5-2.2-.8.5-.2 1.6-.6 2.3-1.2 3.2-2 4.9-4.7 8-8.2 2.4-3.2 15-.8 18.4-1.7-.2 1.2-1.7 2-4.7 2.6-1.3.2-.3 1.5-2.7 2-1.7.4-1.8 1.8-6.1 1.9-.6 0-1.5 1.6-5 2.3-.3.1-.6.2-1 .2-.7-.2-1-.3-1.3-.6.9.1 1.7.1 1.9-.2-.4-.1-1.2-.3-1.2-.5 1.4 0 3.1-.1 2.8-.3-.9 0-1.4-.3-1.7-.6 1.2.2 3.1.1 3.5-.4.2-.2-1.9.1-3-.7h-.1c1.2-.1 7.9.1 7.4-.7-1.6.3-4.8-.1-6.5-.4.7-.1 1.8-.3 2.8-.4 3.1-.1 7.8-.2 7.4-1.3-3 .6-6.4.2-8.4.1 0 .1 0 .1 0 0 .8-.7 5.2-.7 6.4-.8 1-.1 6.7-.4 6.9-1.2-.6.4-3.9.1-6.8.2-3-.1-6.2-.2-7.8 1.2-.4.3-1 .8-1.4 1.3-.3.3-1.2 1.5-1.4 1.7-.5.7-3.1 3.7-5 4.9-.6.3-1.1.2-1.2.5.1 0 .2 0 .4.1 2.3.3 4.6.7 5.7 1.6-.2-.3-.1-.6.3-.8 0 .2.7 1.1 1.6 1.1-.3-.7.2-.9.2-.9s.2.7 1.2.9c1 .2 2.4.7 2.5 1.7.1.5 2.8.5 2.1 2.3 0 0-1.4-.1-3.1-.3-.1.1.9.2.5.5-.6.4-4 .6-3.2-.3.2-.4.9-.5.9-.6ZM15.6 33.4c-1.9-1.4-.1-.6 1.7-.5 1.4.3 3.7.5 5.6.4 1.9-.1-.6.3 2.2 1.2.7.2 4.5.6 3.2.8-8.5-.3-10.3-.5-12.7-1.9Z"/><path stroke="#fff" stroke-miterlimit="10" d="M97.4 1.9v75"/></svg>